<?xml version="1.0" encoding="UTF-8" standalone="no"?>
<!-- Created with Inkscape (http://www.inkscape.org/) -->

<svg
   xmlns:dc="http://purl.org/dc/elements/1.1/"
   xmlns:cc="http://creativecommons.org/ns#"
   xmlns:rdf="http://www.w3.org/1999/02/22-rdf-syntax-ns#"
   xmlns:svg="http://www.w3.org/2000/svg"
   xmlns="http://www.w3.org/2000/svg"
   xmlns:sodipodi="http://sodipodi.sourceforge.net/DTD/sodipodi-0.dtd"
   xmlns:inkscape="http://www.inkscape.org/namespaces/inkscape"
   width="447.97391"
   height="739.80603"
   id="svg2"
   version="1.1"
   inkscape:version="0.47 r22583"
   sodipodi:docname="Deaf_alphabet_L.svg">
  <defs
     id="defs4">
    <inkscape:perspective
       sodipodi:type="inkscape:persp3d"
       inkscape:vp_x="0 : 526.18109 : 1"
       inkscape:vp_y="0 : 1000 : 0"
       inkscape:vp_z="744.09448 : 526.18109 : 1"
       inkscape:persp3d-origin="372.04724 : 350.78739 : 1"
       id="perspective10" />
    <inkscape:perspective
       id="perspective2884"
       inkscape:persp3d-origin="0.5 : 0.33333333 : 1"
       inkscape:vp_z="1 : 0.5 : 1"
       inkscape:vp_y="0 : 1000 : 0"
       inkscape:vp_x="0 : 0.5 : 1"
       sodipodi:type="inkscape:persp3d" />
  </defs>
  <sodipodi:namedview
     id="base"
     pagecolor="#ffffff"
     bordercolor="#666666"
     borderopacity="1.0"
     inkscape:pageopacity="0.0"
     inkscape:pageshadow="2"
     inkscape:zoom="1.0513672"
     inkscape:cx="371.49869"
     inkscape:cy="380.75709"
     inkscape:document-units="px"
     inkscape:current-layer="layer1"
     showgrid="false"
     inkscape:window-width="1280"
     inkscape:window-height="996"
     inkscape:window-x="0"
     inkscape:window-y="0"
     inkscape:window-maximized="1" />
  <metadata
     id="metadata7">
    <rdf:RDF>
      <cc:Work
         rdf:about="">
        <dc:format>image/svg+xml</dc:format>
        <dc:type
           rdf:resource="http://purl.org/dc/dcmitype/StillImage" />
        <dc:title></dc:title>
      </cc:Work>
    </rdf:RDF>
  </metadata>
  <g
     inkscape:label="Calque 1"
     inkscape:groupmode="layer"
     id="layer1"
     transform="translate(-3.5013051,-173.31327)">
    <path
       style="fill:#000000"
       d="m 206.49552,909.25545 c -2.32404,-4.5555 -2.52007,-10.15661 -0.63135,-18.03984 1.73824,-7.2552 5.75541,-18.33335 6.94181,-19.14341 0.51828,-0.35388 1.16501,-2.96102 1.43719,-5.79366 0.39459,-4.10654 0.14551,-5.40571 -1.22908,-6.41083 -2.47828,-1.81217 -3.93096,-9.79875 -3.63086,-19.96188 0.2365,-8.00942 0.06,-8.98332 -1.94243,-10.72005 -2.38537,-2.06882 -2.0671,-4.97017 0.54522,-4.97017 1.45475,0 2.41156,-0.59549 5.83226,-3.62981 0.70052,-0.62139 3.69614,-1.46298 6.65692,-1.87019 2.96078,-0.40721 6.00416,-1.3613 6.76305,-2.12019 0.75889,-0.7589 2.02266,-1.37981 2.80838,-1.37981 0.78571,0 1.42857,-0.45 1.42857,-1 0,-0.55 2.05156,-1 4.55902,-1 2.50746,0 4.31004,-0.40285 4.00574,-0.89522 -0.86902,-1.4061 2.06809,-2.10478 8.84805,-2.10478 5.49817,0 6.37734,-0.27041 7.31521,-2.25 1.51322,-3.19402 5.02746,-16.41949 5.77936,-21.75 0.34911,-2.475 1.24349,-7.65 1.98751,-11.5 0.99563,-5.15195 1.10728,-8.98006 0.42291,-14.5 -2.48958,-20.08012 -2.14376,-19.0838 -9.03689,-26.03537 -1.4405,-1.45271 -3.1629,-4.28904 -3.82755,-6.30296 -0.66466,-2.01392 -1.53204,-3.66167 -1.92752,-3.66167 -0.92131,0 -4.87995,-2.98532 -6.96169,-5.25 -0.88475,-0.9625 -1.99904,-1.75 -2.4762,-1.75 -0.77846,0 -3.19784,-1.9891 -8.81833,-7.25 -1.02829,-0.9625 -2.95792,-1.75 -4.28806,-1.75 -1.68524,0 -3.07423,-1.06109 -4.58156,-3.5 -1.50733,-2.43891 -2.89632,-3.5 -4.58156,-3.5 -1.33014,0 -2.41844,-0.4151 -2.41844,-0.92245 0,-0.50734 -1.575,-1.44224 -3.5,-2.07755 -1.925,-0.63531 -3.5,-1.53988 -3.5,-2.01016 0,-0.47029 -0.93391,-1.15148 -2.07536,-1.51376 -1.14145,-0.36228 -1.86344,-0.87061 -1.60443,-1.12963 0.25902,-0.25901 -1.95822,-2.95903 -4.9272,-6.00004 -2.96897,-3.04101 -5.14542,-5.938 -4.83655,-6.43776 0.30886,-0.49976 -0.04,-0.90865 -0.7752,-0.90865 -0.73523,0 -2.04174,-0.7875 -2.90337,-1.75 -0.86162,-0.9625 -2.59701,-2.425 -3.85641,-3.25 -3.13663,-2.05471 -6.02148,-5.15239 -6.02148,-6.4657 0,-0.59872 -1.37215,-2.59089 -3.04922,-4.42704 -1.67707,-1.83616 -3.97662,-5.31145 -5.11012,-7.72286 -1.1335,-2.41142 -2.37096,-4.3844 -2.7499,-4.3844 -0.77657,0 -3.60748,-7.09074 -3.29374,-8.25 0.11164,-0.4125 -0.40631,-0.75 -1.151,-0.75 -1.57902,0 -7.35025,-5.09833 -6.71713,-5.93394 0.23589,-0.31133 -0.43911,-0.72872 -1.5,-0.92753 -1.06089,-0.19881 -2.28875,-0.98631 -2.72858,-1.75 -0.43983,-0.76369 -1.38259,-1.38853 -2.09501,-1.38853 -0.71243,0 -2.10981,-0.9 -3.1053,-2 -0.99549,-1.1 -2.30273,-2.00394 -2.90499,-2.00875 -1.51619,-0.0121 -8.35508,-10.9322 -8.76225,-13.99125 -0.18302,-1.375 -1.55386,-3.7063 -3.0463,-5.18066 -1.49245,-1.47436 -3.00374,-3.83686 -3.35841,-5.25 -0.35468,-1.41314 -1.15858,-2.57491 -1.78646,-2.58172 -1.21521,-0.0132 -5.64159,-6.26924 -5.64159,-7.9736 0,-0.55771 -0.45,-1.01402 -1,-1.01402 -0.55,0 -1.00307,-0.5625 -1.00683,-1.25 -0.008,-1.40768 -5.94652,-5.75 -7.86407,-5.75 -0.68592,0 -0.96902,-0.45 -0.6291,-1 0.36942,-0.59774 -0.86806,-1 -3.07631,-1 -2.67602,0 -4.34616,-0.70332 -6.05902,-2.55152 -1.30057,-1.40334 -2.36467,-2.81306 -2.36467,-3.13271 0,-1.15717 -4.34542,-4.31577 -5.9374,-4.31577 -0.89726,0 -2.42885,-1.35 -3.40353,-3 -0.97468,-1.65 -2.6099,-3 -3.63382,-3 -2.77898,0 -5.08795,-1.08954 -4.46049,-2.10478 0.3043,-0.49237 0.0984,-0.89522 -0.45761,-0.89522 -1.13167,0 -8.10715,-6.90436 -8.10715,-8.0245 0,-0.39473 -1.57193,-1.7882 -3.49317,-3.0966 -1.92124,-1.30839 -3.49624,-2.73522 -3.5,-3.17071 -0.004,-0.4355 -0.90683,-1.75785 -2.00683,-2.93856 -1.1,-1.18072 -2,-2.7369 -2,-3.45819 0,-0.72129 -0.40114,-1.31144 -0.89142,-1.31144 -0.49028,0 -1.61624,-1.8115 -2.50213,-4.02556 -1.04837,-2.62013 -2.54162,-4.37949 -4.27709,-5.03932 -2.87142,-1.09171 -5.44611,-3.93721 -4.68167,-5.17409 0.25869,-0.41857 -0.006,-0.76103 -0.58867,-0.76103 -0.58246,0 -1.05902,-0.59656 -1.05902,-1.32569 0,-2.75446 -4.50531,-5.67431 -8.75543,-5.67431 -2.2696,0 -4.38045,-0.41084 -4.69079,-0.91299 -0.31035,-0.50214 -2.40665,-1.22425 -4.65845,-1.60469 -2.25181,-0.38044 -4.82446,-1.5446 -5.717,-2.58702 -0.89255,-1.04241 -2.00495,-1.8953 -2.472,-1.8953 -0.46705,0 -1.46478,-0.61559 -2.21718,-1.36799 -0.77493,-0.77493 -3.66845,-1.41981 -6.67441,-1.48754 -2.91854,-0.0658 -5.4583,-0.57516 -5.64392,-1.13201 -0.18562,-0.55685 -1.1448903,-1.01246 -2.1317103,-1.01246 -3.16275,0 -4.2783,-2.79108 -4.80456,-12.02094 -0.44057,-7.72703 -0.25785,-9.29584 1.28077,-10.99599 0.98706,-1.09069 2.62491,-1.98307 3.63967,-1.98307 1.01475,0 1.7405503,-0.3375 1.6128703,-0.75 -0.3603603,-1.16428 3.51972,-5.25 4.98577,-5.25 0.72002,0 1.56816,-0.675 1.88474,-1.5 0.31659,-0.825 1.76496,-1.50689 3.21862,-1.51531 1.85147,-0.0107 2.23903,-0.27133 1.29409,-0.87015 -1.84483,-1.16912 5.09531,-2.43897 8.83756,-1.61704 1.5908,0.3494 3.10625,0.15798 3.47518,-0.43895 0.83126,-1.34501 8.53618,-1.39785 8.53618,-0.0585 0,0.55 1.0125,0.99311 2.25,0.98469 1.81944,-0.0124 1.96296,-0.20082 0.75,-0.98469 -1.20677,-0.77988 -1.04862,-0.97237 0.80902,-0.98469 1.26996,-0.008 2.06476,0.3799 1.76623,0.86294 -0.62473,1.01083 4.11359,2.12175 9.04975,2.12175 1.85625,0 3.375,0.3872 3.375,0.86045 0,0.47325 2.8125,1.26887 6.25,1.76805 3.65956,0.53143 6.16192,1.37158 6.03749,2.02707 -0.1284,0.67642 2.31355,1.38998 6.17028,1.803 4.11031,0.44018 6.57801,1.19229 6.93112,2.11249 0.30159,0.78592 1.41432,1.42894 2.47274,1.42894 1.05841,0 2.16127,0.6173 2.4508,1.37178 0.28952,0.75448 2.70016,2.41966 5.35698,3.7004 2.65683,1.28073 5.9433,3.58843 7.30327,5.12821 1.35998,1.53979 3.07404,2.79961 3.80902,2.79961 0.73498,0 1.05822,0.45 0.7183,1 -0.33992,0.55 0.002,1 0.76087,1 0.7584,0 2.90935,1.36637 4.77988,3.03638 1.87053,1.67001 4.42658,3.29379 5.68011,3.60841 1.25353,0.31461 2.27914,0.98438 2.27914,1.48837 0,0.50399 1.09481,1.33259 2.4329,1.84133 1.3381,0.50874 3.44773,2.29761 4.68806,3.97525 1.24034,1.67764 3.09709,3.05026 4.12612,3.05026 1.02902,0 1.59087,0.45318 1.24855,1.00706 -0.34231,0.55389 0.19363,1.31497 1.19099,1.69131 0.99736,0.37633 3.74364,2.51065 6.10285,4.74294 6.51157,6.16123 7.72023,7.15656 9.53692,7.8537 0.92049,0.35322 1.67361,1.05626 1.67361,1.56231 0,0.50606 1.58751,1.21792 3.52779,1.58192 1.94028,0.364 3.26373,1.08908 2.94098,1.61129 -0.32274,0.52221 0.3193,0.94947 1.42676,0.94947 1.99246,0 7.3283,4.44284 6.42305,5.34809 -0.25812,0.25811 0.46461,0.76571 1.60606,1.12799 1.14145,0.36228 2.07536,1.07837 2.07536,1.59131 0,1.2428 9.73974,1.20542 10.16667,-0.039 0.18333,-0.5344 3.03333,-1.0969 6.33333,-1.25 3.3,-0.1531 6.23983,-0.59688 6.53295,-0.98618 0.29312,-0.38929 2.52659,-0.0209 4.96328,0.81856 4.10643,1.41479 4.52441,1.39773 5.71705,-0.23331 2.23701,-3.05929 1.16866,-14.36118 -1.5462,-16.35708 -1.1387,-0.83718 -3.16708,-5.95063 -3.16708,-7.9841 0,-1.02829 -0.35375,-2.01961 -0.78612,-2.20295 -1.84539,-0.78248 -5.20738,-6.895 -7.22167,-13.12994 -2.52145,-7.80472 -2.37965,-13.19565 0.72867,-27.70339 2.71594,-12.67635 4.27912,-23.07045 4.27912,-28.45323 0,-10.79407 5.84913,-27.17501 12.09858,-33.883 1.04578,-1.12252 1.90142,-2.40609 1.90142,-2.85238 0,-0.44629 0.675,-0.81144 1.5,-0.81144 0.825,0 1.5,-0.40122 1.5,-0.89159 0,-1.63044 5.38234,-2.29797 16.5,-2.04638 11.98797,0.27129 12.76259,0.30852 29.16971,1.40179 8.1325,0.5419 12.21122,0.3972 15,-0.53216 5.9882,-1.99557 17.69691,-1.80968 20.05147,0.31834 2.44111,2.20624 7.60642,2.26512 9.3974,0.10712 0.81609,-0.98333 1.6599,-5.70045 2.10187,-11.75 0.40612,-5.55892 1.23519,-14.60712 1.84237,-20.10712 1.41149,-12.78557 1.4048,-18.86101 -0.0331,-30 -1.63719,-12.68315 -0.90114,-34.73583 1.35176,-40.5 2.9941,-7.6606 3.75513,-28.66976 1.66628,-46 -0.78337,-6.49925 -1.01596,-14.50076 -0.61044,-21 0.36033,-5.775 0.57656,-11.625 0.48051,-13 -0.4576,-6.55052 -0.11853,-11.84968 0.99178,-15.5 0.66917,-2.2 1.83441,-6.7079 2.58941,-10.01755 2.80829,-12.3105 5.85186,-17.29707 12.88364,-21.10854 2.38451,-1.29248 3.02994,-1.33019 3.73469,-0.21821 0.63285,0.99854 0.85592,1.0228 0.8673,0.0943 0.008,-0.6875 0.54238,-1.25 1.18657,-1.25 0.64419,0 1.88169,-0.59737 2.75,-1.32748 4.04923,-3.40478 16.83941,-4.87075 19.06796,-2.18551 1.68299,2.02788 0.40452,6.59726 -2.02351,7.23221 -1.06877,0.27948 -1.69672,0.907 -1.39545,1.39447 0.30132,0.48747 -0.5277,0.88631 -1.84222,0.88631 -1.52592,0 -2.87378,-0.90388 -3.728,-2.5 -1.49917,-2.80123 -2.49959,-3.07687 -4.53672,-1.25 -2.7924,2.50418 -3.99409,3.36261 -5.52498,3.94678 -2.7687,1.05652 -7.71609,12.78606 -8.83923,20.95656 -0.57863,4.20933 -1.96617,9.97246 -3.08342,12.80696 -1.55793,3.95249 -2.0878,7.87886 -2.27351,16.84666 -0.2321,11.20812 0.53748,21.21843 1.78664,23.2396 0.32409,0.52439 3.68614,0.95344 7.47122,0.95344 7.35751,0 8.72527,0.77631 7.01106,3.97933 -0.82554,1.54255 -2.09035,2.02067 -5.34536,2.02067 -3.92154,0 -4.36035,0.26667 -5.46481,3.321 -0.66049,1.82655 -1.20918,5.76405 -1.21932,8.75 -0.0101,2.98595 -0.63812,9.029 -1.39552,13.429 -2.47485,14.3772 -2.47508,30.86015 -4.6e-4,33.59457 1.35635,1.49876 1.43971,2.56022 0.53306,6.7878 -1.34239,6.25933 -0.49752,12.73876 1.9847,15.22098 1.04316,1.04316 1.89665,2.35725 1.89665,2.9202 0,0.57985 1.54316,0.8535 3.55983,0.63127 5.10404,-0.56246 7.55422,2.27845 5.83318,6.76339 -0.45591,1.18808 -2.03517,1.58179 -6.34501,1.58179 -4.46803,0 -6.13863,0.44266 -7.548,2 -0.99549,1.1 -1.46013,2 -1.03254,2 0.42758,0 0.32746,0.5625 -0.22251,1.25 -0.54997,0.6875 -0.92403,3.05 -0.83125,5.25 0.0928,2.2 -0.36561,6.70147 -1.01865,10.00328 -0.65304,3.3018 -1.70204,10.23632 -2.3311,15.41005 -0.62907,5.17373 -1.34134,9.72648 -1.58283,10.11722 -2.64898,4.28614 -6.7097,37.55463 -6.9176,56.67418 -0.0771,7.09427 -0.38633,8.48154 -2.28455,10.25 -1.20744,1.1249 -3.26416,2.04527 -4.57049,2.04527 -3.76911,0 -7.69693,4.90006 -10.84709,13.53206 -3.3288,9.1215 -3.56675,15.47072 -0.60878,16.24425 2.9443,0.76995 1.64186,3.75653 -1.5418,3.53543 -1.49094,-0.10355 -2.71081,0.18286 -2.71081,0.63645 0,0.4536 -2.0839,1.13722 -4.63089,1.51917 -2.77085,0.41551 -5.67878,1.6661 -7.23978,3.11354 -1.43489,1.33051 -3.42636,2.4191 -4.42548,2.4191 -0.99913,0 -3.06385,1.36557 -4.58827,3.0346 -1.85192,2.02759 -3.3265,2.82169 -4.44363,2.39301 -0.91957,-0.35287 -1.67195,-1.04344 -1.67195,-1.5346 0,-0.49115 -0.975,-0.89301 -2.16667,-0.89301 -1.19166,0 -1.90416,0.2625 -1.58333,0.58333 0.32083,0.32084 -0.27917,1.44584 -1.33333,2.5 -1.05417,1.05417 -1.91667,2.59167 -1.91667,3.41667 0,0.825 -0.38115,1.5 -0.84699,1.5 -0.46584,0 -1.7943,0.7875 -2.95213,1.75 -1.15783,0.9625 -2.92379,2.425 -3.92437,3.25 -1.00057,0.825 -2.70962,3.2235 -3.79787,5.33 -2.73963,5.30303 -7.67557,10.67 -9.81306,10.67 -0.98099,0 -1.5055,0.45 -1.16558,1 0.36839,0.59607 -0.71858,0.95974 -2.69098,0.90032 -3.11109,-0.0937 -3.15948,-0.14757 -0.80902,-0.90032 2.25167,-0.72111 2.13578,-0.81054 -1.16667,-0.90032 -2.01666,-0.0548 -3.81666,0.34181 -4,0.8814 -0.41462,1.22034 -15.96331,3.02414 -17.33333,2.01084 -0.55,-0.4068 -3.10918,-1.04472 -5.68707,-1.41761 -4.09051,-0.59169 -4.82685,-0.41683 -5.78519,1.37385 -0.60396,1.12851 -1.78383,2.05184 -2.62194,2.05184 -0.83811,0 -1.27486,0.40285 -0.97056,0.89522 0.7301,1.18132 -1.82208,2.10478 -5.81703,2.10478 -1.77001,0 -3.6852,0.46699 -4.25597,1.03776 -1.19744,1.19744 -9.36224,0.18094 -9.36224,-1.16557 0,-0.4797 -0.68912,-0.87219 -1.53138,-0.87219 -0.84227,0 -1.77483,-0.63439 -2.07236,-1.40975 -0.29754,-0.77537 -1.68651,-1.69727 -3.08662,-2.04867 -1.4001,-0.3514 -2.28683,-0.89772 -1.97051,-1.21404 0.68209,-0.68209 -5.22724,-4.83986 -8.23601,-5.79481 -1.15672,-0.36713 -2.10312,-1.06657 -2.10312,-1.55431 0,-1.65553 -9.27448,-7.97842 -11.70282,-7.97842 -1.32837,0 -2.14525,-0.43681 -1.8153,-0.97068 0.32995,-0.53388 -0.51093,-1.24949 -1.86862,-1.59025 -1.3577,-0.34076 -2.71198,-1.25395 -3.00952,-2.02932 -0.29753,-0.77536 -1.56759,-1.42406 -2.82236,-1.44155 -1.25476,-0.0175 -3.15489,-0.6925 -4.22251,-1.5 -1.06762,-0.80751 -2.76924,-1.4682 -3.78138,-1.4682 -1.01214,0 -2.0837,-0.63439 -2.38123,-1.40975 -0.29754,-0.77537 -1.63078,-1.68328 -2.96276,-2.01758 -1.33198,-0.33431 -2.31996,-0.93742 -2.1955,-1.34025 0.3615,-1.17014 -3.54919,-5.23242 -5.03716,-5.23242 -0.74508,0 -2.70469,-1.35 -4.35469,-3 -1.65,-1.65 -3.30553,-3 -3.67896,-3 -0.37343,0 -1.27654,-1.35 -2.0069,-3 -0.73036,-1.65 -1.91011,-3 -2.62166,-3 -0.71156,0 -1.80893,-0.62077 -2.43861,-1.37949 -0.62968,-0.75871 -2.5109,-1.65269 -4.18048,-1.9866 -3.17082,-0.63417 -5.91954,-2.74389 -5.91954,-4.54343 0,-0.57881 -1.12189,-1.33395 -2.49309,-1.6781 -1.3712,-0.34415 -2.26727,-0.99111 -1.99127,-1.43768 0.276,-0.44658 -0.88243,-1.11599 -2.57427,-1.48758 -1.69185,-0.37159 -4.28328,-1.30544 -5.75873,-2.07521 -1.47545,-0.76977 -3.25926,-1.40236 -3.96403,-1.40575 -0.70476,-0.003 -1.5404,-0.68116 -1.85698,-1.50616 -0.31659,-0.825 -1.1801,-1.5 -1.91893,-1.5 -0.73883,0 -1.74419,-0.71632 -2.23415,-1.59182 -0.68917,-1.23148 -3.05544,-1.68691 -10.45327,-2.0119 -12.19933,-0.53593 -14.75528,0.34386 -14.75528,5.07897 0,1.93861 0.41539,3.52475 0.92308,3.52475 0.50769,0 2.21255,1.28948 3.78859,2.86551 1.57603,1.57604 3.86064,3.18136 5.07692,3.56739 1.21628,0.38603 2.21141,1.09123 2.21141,1.5671 0,0.47587 0.90653,1.15295 2.01452,1.50461 1.10799,0.35166 1.78692,1.00764 1.50875,1.45774 -0.27817,0.45009 1.01813,1.10424 2.88068,1.45365 4.96067,0.93063 8.32542,8.21496 9.22988,19.98177 0.6166,8.0217 0.96501,9.12976 4.02064,12.78711 1.84004,2.20239 3.34553,4.55192 3.34553,5.22117 0,1.37231 2.67441,4.36536 5.86582,6.56471 1.1738,0.80892 2.13418,1.94641 2.13418,2.52776 0,1.6696 3.81892,4.50148 6.07045,4.50148 1.12617,0 1.79487,-0.40889 1.48601,-0.90865 -0.64629,-1.04571 9.80589,-12.09135 11.44169,-12.09135 3.63893,0 7.00185,8.43578 7.00185,17.56391 0,2.30719 0.73717,3.87079 2.46609,5.23075 1.35635,1.06691 2.18135,2.22457 1.83333,2.57259 -0.34801,0.34801 0.24224,0.63275 1.31167,0.63275 1.06944,0 2.71503,0.9 3.65688,2 0.94185,1.1 2.39186,2 3.22224,2 0.83039,0 1.50979,0.675 1.50979,1.5 0,0.825 0.45,1.5 1,1.5 0.55,0 1,0.45 1,1 0,1.17824 3.65189,5 4.77776,5 0.93306,0 3.16606,2.66757 5.22224,6.23857 2.17294,3.77378 6.82657,9.43479 12.12263,14.74686 2.54245,2.55013 4.91759,5.50914 5.2781,6.57558 0.99023,2.92927 3.94461,6.09644 6.41961,6.88197 1.21479,0.38556 1.9677,1.09096 1.67315,1.56756 -0.29456,0.47659 0.26141,1.33051 1.23548,1.89759 0.97407,0.56708 1.35302,1.04474 0.84213,1.06146 -0.5109,0.0167 1.14217,2.01484 3.67348,4.44026 2.53131,2.42542 4.3474,4.66483 4.03577,4.97647 -0.31163,0.31163 0.2853,0.89039 1.32652,1.28612 1.04122,0.39574 3.00584,1.98133 4.36581,3.52354 1.35998,1.54221 3.04748,2.80402 3.75,2.80402 1.40219,0 5.30926,3.55273 5.22376,4.75 -0.0295,0.4125 1.65804,1.2 3.75,1.75 6.31316,1.6598 11.92607,5.68374 10.69857,7.66987 -0.2352,0.38056 0.037,0.97912 0.60499,1.33013 0.56794,0.35101 0.77373,1.0571 0.45729,1.5691 -0.31643,0.51199 -0.16122,0.9309 0.34491,0.9309 0.50613,0 1.89154,2.53818 3.07869,5.64039 1.18715,3.10221 3.4996,7.16787 5.13878,9.0348 1.63918,1.86692 2.98033,4.05374 2.98033,4.85961 0,0.80586 0.92007,2.38527 2.04461,3.50981 1.78376,1.78376 1.95865,2.80439 1.37083,8 -0.72001,6.36406 0.85937,8.53365 2.10006,2.88484 0.47584,-2.16653 1.11216,-2.90257 2.16124,-2.5 0.81776,0.3138 2.15159,0.57055 2.96406,0.57055 0.81248,0 1.22175,0.41338 0.90949,0.91863 -0.31226,0.50524 0.78618,1.216 2.44098,1.57945 1.6548,0.36346 3.00873,1.0665 3.00873,1.56232 0,0.49582 1.125,1.18385 2.5,1.52896 1.375,0.3451 2.5,1.02867 2.5,1.51905 0,0.49037 0.62531,0.89159 1.38958,0.89159 0.76427,0 3.12677,1.56456 5.25,3.4768 2.12323,1.91224 4.40395,3.48724 5.06827,3.5 0.66431,0.0128 2.40772,2.07063 3.87423,4.57305 1.90726,3.2545 3.4805,4.71267 5.52592,5.12175 1.57275,0.31455 2.64915,0.91233 2.392,1.3284 -0.53444,0.86475 4.36134,2 8.625,2 1.58125,0 2.875,0.44143 2.875,0.98095 0,0.53952 1.08882,1.25422 2.41961,1.58823 4.04143,1.01433 8.58039,6.83486 8.58039,11.00304 0,3.72199 2.59446,10.42778 4.03449,10.42778 0.44363,0 1.09257,1.30202 1.44209,2.89338 0.34952,1.59136 1.99879,3.93818 3.66504,5.21515 3.50709,2.68776 6.24524,7.44094 5.46212,9.48173 -0.94489,2.46233 -3.73524,1.52162 -4.93795,-1.66473 -0.80507,-2.13287 -2.00989,-3.24435 -3.93395,-3.62916 -1.5254,-0.30508 -3.02019,-0.95391 -3.32175,-1.44184 -1.34548,-2.17704 -2.41009,0.78454 -2.41009,6.70449 l 0,6.44098 3.63768,0 3.63768,0 -0.66474,5.65589 c -0.3656,3.11074 -1.28154,7.04824 -2.03542,8.75 -0.75388,1.70176 -1.90763,6.69411 -2.5639,11.09411 -0.65626,4.4 -1.60735,9.31918 -2.11351,10.93152 -1.1908,3.79313 -0.12093,9.56848 1.77252,9.56848 0.79625,0 1.19472,0.40936 0.8855,0.90969 -0.30922,0.50033 1.46422,0.87906 3.94099,0.84162 2.47676,-0.0374 4.5032,-0.44681 4.5032,-0.90969 0,-0.46289 0.84856,-0.84162 1.88569,-0.84162 1.03713,0 3.17463,-0.67223 4.75,-1.49384 1.57537,-0.82161 4.12837,-1.49661 5.67333,-1.5 1.61681,-0.004 2.54671,-0.43058 2.19098,-1.00616 -0.33992,-0.55 0.11008,-1 1,-1 0.88992,0 1.33992,0.45 1,1 -0.33992,0.55 -0.14148,1 0.44098,1 0.58246,0 1.05902,-0.45 1.05902,-1 0,-0.55 0.92656,-1 2.05902,-1 1.13246,0 1.7809,0.45 1.44098,1 -0.33992,0.55 0.0835,1 0.94098,1 0.85746,0 1.55902,-0.38538 1.55902,-0.8564 0,-0.84205 6.13269,-1.59553 22.84149,-2.80637 6.1882,-0.44845 8.25847,-0.30799 7.74345,0.52534 -0.41045,0.66412 -0.0542,1.13743 0.85604,1.13743 0.85746,0 1.56591,-0.5625 1.57433,-1.25 0.0102,-0.83333 0.33844,-0.75 0.98469,0.25 0.64625,1 0.97448,1.08333 0.98469,0.25 0.0223,-1.81941 13.41695,-1.7055 15.25216,0.12971 0.75885,0.75884 3.26599,1.6984 5.57143,2.0879 2.30545,0.3895 4.19172,1.09824 4.19172,1.57497 0,0.47674 1.6875,1.18249 3.75,1.56833 2.0625,0.38584 4.2,1.27042 4.75,1.96572 1.49145,1.88547 16.3196,3.47405 19.83517,2.12499 2.3589,-0.90519 3.02181,-6.75213 1.39477,-12.3019 -1.16345,-3.96847 -1.26566,-7.84569 -0.53775,-20.39972 1.21135,-20.89187 0.98458,-60.12022 -0.38948,-67.37677 -0.81205,-4.28849 -0.81495,-6.72088 -0.0107,-9 0.9776,-2.77044 4.95663,-28.67468 8.08679,-52.64648 2.32009,-17.76808 3.30969,-48.7061 2.08777,-65.27028 -1.04134,-14.11609 -0.9835,-16.46435 0.54457,-22.10948 1.27942,-4.72656 1.43953,-6.82069 0.63623,-8.32167 -0.59039,-1.10314 -1.61836,-8.16085 -2.28439,-15.68381 -1.17245,-13.24321 -1.13653,-13.93567 1.12989,-21.7792 2.24746,-7.77787 2.28821,-8.5043 1.02135,-18.2067 -0.72572,-5.55809 -1.40705,-11.49983 -1.51405,-13.20387 -0.10701,-1.70404 -0.51487,-3.61654 -0.90637,-4.25 -0.3915,-0.63346 -0.34776,-1.15342 0.0972,-1.15548 0.44496,-0.002 -0.70036,-0.92395 -2.54516,-2.04865 -3.21394,-1.95942 -3.41121,-1.96972 -4.7182,-0.24627 -0.75021,0.98926 -1.37832,2.13616 -1.39582,2.54866 -0.0175,0.4125 -1.05679,0.75 -2.30956,0.75 -2.56307,0 -5.69756,-3.12969 -5.77027,-5.76143 -0.0264,-0.95621 -0.91412,-3.31357 -1.97267,-5.23857 -1.05856,-1.925 -2.21443,-4.2875 -2.5686,-5.25 -0.69742,-1.89527 -1.22521,-2.04572 -6.21073,-1.77039 -5.43234,0.3 -6.19997,-1.09908 -6.19997,-11.30016 0,-4.99161 -0.54355,-12.83504 -1.20789,-17.42984 -0.94385,-6.52802 -0.94385,-8.77698 0,-10.28833 1.43937,-2.30481 1.59788,-8.17129 0.25701,-9.51216 -0.58827,-0.58827 -0.60635,-2.47588 -0.0474,-4.95 0.62664,-2.77378 0.42844,-7.00111 -0.64685,-13.79669 -1.06532,-6.73259 -1.34995,-12.67636 -0.90984,-19 1.77674,-25.52889 1.77654,-25.71575 -0.0317,-29.52642 -1.34749,-2.83963 -1.91794,-7.93555 -2.53765,-22.66953 -0.87424,-20.78557 -1.33483,-24.08103 -3.7562,-26.87532 -1.21316,-1.4 -1.63173,-4.03419 -1.66844,-10.5 -0.0595,-10.46896 -1.3152,-24.89609 -2.40503,-27.63116 -0.43832,-1.1 -1.34917,-3.35 -2.02412,-5 -0.67495,-1.65 -1.62557,-5.475 -2.11249,-8.5 -0.48692,-3.025 -1.35924,-7.525 -1.93848,-10 -0.57925,-2.475 -1.10966,-5.03254 -1.17869,-5.68342 -0.069,-0.65089 -1.06301,-1.432 -2.20885,-1.73582 -2.84718,-0.7549 -8.5834,-9.83219 -8.5834,-13.58271 0,-1.66386 -0.43181,-3.80658 -0.95959,-4.76162 -1.74394,-3.15578 -2.94692,-11.54259 -1.92857,-13.44541 1.05374,-1.96893 3.40862,-2.37595 4.40634,-0.76161 0.34991,0.56618 0.79549,4.50368 0.99017,8.75 0.32427,7.07301 3.51831,19.07615 4.91502,18.47059 0.31715,-0.1375 1.02663,-0.25 1.57663,-0.25 1.27441,0 1.26542,-8.04019 -0.0215,-19.27275 -1.14061,-9.95467 -0.5896,-13.72725 2.00491,-13.72725 2.05783,0 3.01659,3.62237 3.01659,11.39726 0,2.83099 1.12143,10.53724 2.49207,17.125 1.37064,6.58776 2.49564,13.00817 2.5,14.26758 0.004,1.25941 0.85585,3.95941 1.89219,6 1.71432,3.37555 3.59518,10.78933 4.36619,17.21016 0.1651,1.375 0.60365,2.98288 0.97454,3.57307 1.26289,2.0096 3.04343,13.9023 3.50742,23.42693 0.25454,5.225 0.90433,10.03884 1.444,10.69742 0.53966,0.65858 1.16192,10.27684 1.38279,21.37391 0.22704,11.40723 0.83829,20.70269 1.40638,21.38719 2.00272,2.41314 4.0342,17.26454 4.04088,29.54148 0.006,11.69024 2.74665,33.17348 4.61758,36.2007 0.40408,0.65381 0.79958,6.39069 0.87889,12.74861 0.10564,8.46856 0.62884,12.82887 1.9565,16.30528 0.99676,2.60997 2.14267,4.74541 2.54647,4.74541 0.4038,0 1.30439,2.03659 2.00131,4.52576 0.69693,2.48917 1.62258,4.74544 2.05701,5.01393 0.43443,0.26849 1.33516,2.1694 2.00163,4.22424 0.66647,2.05484 2.07994,4.97357 3.14105,6.48607 1.06111,1.5125 1.643,2.75 1.2931,2.75 -0.79259,0 2.94116,5.29552 6.23623,8.84476 1.35581,1.46038 3.10636,3.89274 3.89012,5.40524 0.78375,1.5125 1.89001,2.75 2.45835,2.75 0.56833,0 0.79568,0.38453 0.50522,0.85451 -0.29046,0.46997 0.84215,2.38247 2.51692,4.25 5.65938,6.31074 9.4296,16.95905 6.90022,19.48843 -0.54611,0.54611 -1.26695,7.04861 -1.60185,14.45 -0.3349,7.40138 -1.19623,16.40997 -1.91406,20.01908 -1.50883,7.58601 -1.19531,47.33062 0.5162,65.43798 1.18069,12.49137 0.31186,25.47323 -3.07863,46 -1.18099,7.15 -2.32128,15.025 -2.53397,17.5 -0.81734,9.511 -2.58234,24.74057 -3.49424,30.15057 -0.93988,5.57594 -2.17785,27.62685 -2.09685,37.34943 0.0229,2.75 0.11555,11.075 0.20586,18.5 0.0903,7.425 -0.38331,19.99722 -1.0525,27.93827 -1.06677,12.65898 -1.01586,15.37295 0.41314,22.02285 0.89641,4.17151 1.62984,9.24525 1.62984,11.27496 l 0,3.69038 6.5,-0.11076 c 3.575,-0.0609 6.5,-0.49438 6.5,-0.96323 0,-0.46886 1.575,-0.85247 3.5,-0.85247 1.925,0 3.5,0.39992 3.5,0.88871 0,0.48879 1.6304,1.19457 3.62311,1.56841 5.2412,0.98325 7.03443,2.35977 11.43997,8.78157 3.12104,4.54941 3.93692,6.65334 3.93692,10.15218 0,3.96885 -0.29154,4.51511 -2.89392,5.42231 -2.49885,0.8711 -2.98391,1.66944 -3.55304,5.84782 -0.36251,2.66145 -0.53191,10.689 -0.37643,17.839 0.333,15.31401 -1.79697,26.70694 -5.90597,31.59021 -2.33002,2.76908 -2.5923,2.85216 -3.79807,1.20316 -0.71237,-0.97422 -1.03394,-2.19408 -0.71459,-2.71078 0.31934,-0.51671 0.91402,-7.04668 1.3215,-14.51103 0.68944,-12.62923 2.44914,-20.2096 4.26899,-18.38976 0.35834,0.35834 0.65153,-0.046 0.65153,-0.8985 0,-0.85252 -0.8529,-1.77307 -1.89533,-2.04568 -1.49551,-0.39108 -1.97778,-1.62863 -2.2862,-5.86663 -0.21498,-2.95404 0.0496,-6.57677 0.58796,-8.0505 1.41332,-3.8689 -0.57954,-7.82049 -3.94401,-7.82049 -1.41925,0 -2.33251,-0.40119 -2.02946,-0.89153 0.30305,-0.49034 -1.05531,-1.07906 -3.01858,-1.30826 -2.64831,-0.30917 -3.89994,0.0549 -4.84962,1.4108 -1.79093,2.55691 -0.74709,6.76917 1.92967,7.78687 2.69787,1.02573 3.71286,3.32802 2.8982,6.57391 -0.50841,2.02564 -1.02984,2.30902 -3.24911,1.76583 -1.45394,-0.35587 -2.79352,-1.02742 -2.97685,-1.49233 -0.51863,-1.31517 -10.46931,-0.93183 -12.3179,0.47453 -1.58811,1.2082 -2.20827,3.35712 -1.96392,6.80518 0.0671,0.94648 1.31746,1.86546 2.99461,2.20089 1.58371,0.31674 3.57657,1.27299 4.42858,2.125 0.852,0.85201 2.02743,1.54911 2.61206,1.54911 0.58462,0 1.62501,0.9 2.31197,2 0.82998,1.32901 2.33203,2 4.47709,2 2.45855,0 3.09086,0.35757 2.65247,1.5 -0.31659,0.825 -0.0509,1.5 0.5904,1.5 0.6413,0 0.84576,0.51817 0.45434,1.15149 -0.50154,0.81152 -1.0682,0.66389 -1.91926,-0.5 -0.66418,-0.90832 -2.43855,-1.65149 -3.94306,-1.65149 -2.71737,0 -8.71967,-2.75539 -9.39892,-4.31462 -0.19519,-0.44805 -1.45976,-1.2347 -2.81018,-1.74813 -1.35041,-0.51343 -2.19669,-1.35195 -1.8806,-1.86338 0.31608,-0.51143 -0.33838,-1.21967 -1.45435,-1.57387 -1.11597,-0.3542 -1.7791,-1.0484 -1.47362,-1.54268 0.30548,-0.49428 -0.58488,-1.18488 -1.97857,-1.53468 -1.39369,-0.34979 -2.28554,-1.03798 -1.98188,-1.52931 0.30366,-0.49133 -0.17601,-0.89333 -1.06593,-0.89333 -0.88992,0 -1.3799,0.3853 -1.08885,0.85623 0.29104,0.47093 -3.8449,1.12698 -9.19099,1.45789 -5.34609,0.33091 -10.80303,0.9165 -12.12653,1.30129 -1.69977,0.4942 -2.19631,0.35974 -1.69098,-0.45789 0.45074,-0.72932 -0.0245,-1.15752 -1.28462,-1.15752 -1.1,0 -2.27811,0.45 -2.61803,1 -0.34127,0.55218 -4.83737,1 -10.03996,1 l -9.42194,0 -0.61199,-2.75 c -0.3366,-1.5125 -0.81972,-3.51928 -1.07359,-4.45951 -0.42244,-1.56451 1.24576,-1.73414 19.66829,-2 11.07144,-0.15977 20.74098,0.0526 21.48787,0.47189 0.74689,0.41931 1.63954,0.30681 1.98367,-0.25 0.34413,-0.55681 2.96163,-1.01927 5.81667,-1.02769 6.45179,-0.019 7.55344,-0.7023 7.90856,-4.90509 0.33877,-4.00939 -0.0384,-4.15084 -12.67608,-4.75355 -4.92718,-0.23498 -9.49961,-0.87632 -10.16097,-1.4252 -0.80667,-0.66948 -1.42165,-0.64334 -1.86832,0.0794 -0.44045,0.71266 -4.10967,0.90095 -10.83903,0.55621 -5.59525,-0.28665 -16.13798,-0.5713 -23.42828,-0.63256 -7.29031,-0.0613 -13.45478,-0.43448 -13.69883,-0.82935 -0.24404,-0.39487 0.18157,-1.92319 0.94581,-3.39625 0.85565,-1.64929 0.98699,-2.6783 0.34183,-2.6783 -0.57623,0 -0.7942,-0.66059 -0.48437,-1.46797 0.30982,-0.80739 0.025,-1.80067 -0.63293,-2.2073 -1.73141,-1.07007 2.67991,-2.10604 9.47457,-2.22505 3.13004,-0.0548 5.9691,0.35032 6.30902,0.90032 0.33992,0.55 0.029,1.01431 -0.69098,1.0318 -0.87509,0.0213 -0.73406,0.4684 0.42544,1.34888 0.95395,0.72439 1.4863,1.56523 1.18299,1.86853 -1.50243,1.50244 7.95432,2.64933 25.36234,3.07591 16.45376,0.40318 19.50541,0.24682 20.81898,-1.06675 0.84655,-0.84655 2.97065,-1.83195 4.72021,-2.18977 2.83621,-0.58007 3.18102,-1.02553 3.18102,-4.1096 0,-2.87429 -0.3991,-3.51548 -2.36099,-3.7931 -1.50304,-0.21269 -2.11752,0.0598 -1.69098,0.75 0.3685,0.59626 0.0445,1.0841 -0.72003,1.0841 -0.76452,0 -1.99246,-1.12563 -2.72874,-2.50139 -1.20572,-2.25291 -1.50351,-2.35225 -2.99772,-1 -2.27078,2.05503 -4.64569,1.88443 -8.70671,-0.62541 -2.55232,-1.57742 -3.7323,-1.83573 -4.56803,-1 -1.40657,1.40657 -8.09022,1.52384 -7.2268,0.1268 0.38272,-0.61926 -1.21295,-0.95495 -4.19098,-0.88169 -4.26935,0.10504 -4.47236,0.20399 -1.80902,0.88169 2.93447,0.7467 2.94266,0.76595 0.375,0.88169 -1.44375,0.0651 -4.01144,0.3956 -5.70599,0.73451 -3.02392,0.60478 -3.07118,0.55385 -2.55152,-2.75 0.43507,-2.76612 0.11526,-3.61898 -1.79402,-4.78418 -2.96005,-1.80648 -23.16006,-4.03279 -25.3699,-2.7961 -1.38997,0.77787 -6.02979,1.05203 -13.95357,0.8245 -3.1871,-0.0915 -19.70689,1.63694 -23,2.40648 -1.65,0.38558 -6.6,0.90092 -11,1.14522 -4.4,0.24429 -8.15,0.87025 -8.33333,1.39102 -0.18334,0.52077 -1.87694,0.94686 -3.76357,0.94686 -1.88663,0 -4.29636,0.5409 -5.35496,1.20201 -1.53059,0.95587 -2.48183,0.90467 -4.64535,-0.25 -3.28776,-1.75468 -13.74964,-1.57633 -15.95182,0.27195 -0.83621,0.70182 -2.14762,1.83854 -2.91425,2.52604 -0.76662,0.6875 -2.75561,1.25 -4.41998,1.25 -2.72651,0 -3.08384,0.37127 -3.60921,3.75 -0.3207,2.0625 -0.96108,5.93676 -1.42307,8.60946 -1.39016,8.04243 0.0753,10.31825 4.60229,7.14739 2.20437,-1.544 8.31325,-1.08976 8.31325,0.61815 0,0.48125 1.575,0.875 3.5,0.875 1.925,0 3.5,-0.45 3.5,-1 0,-0.55 0.52571,-0.8875 1.16825,-0.75 1.43063,0.30615 3.79688,-3.96698 3.81701,-6.89301 0.0158,-2.29664 -1.72398,-3.35699 -5.50803,-3.35699 -1.29756,0 -2.63731,-0.45 -2.97723,-1 -0.33992,-0.55 -1.06803,-1 -1.61803,-1 -0.55,0 -0.68581,0.50838 -0.30179,1.12973 0.38843,0.6285 0.19278,0.96126 -0.44098,0.75 -3.09569,-1.03189 -1.13171,-2.37073 3.3608,-2.29104 16.63191,0.295 16.75582,0.31176 15.97839,2.16131 -1.68229,4.00228 -1.66696,6.38415 0.0533,8.28504 2.12735,2.35069 6.71776,2.57422 8.51025,0.4144 0.7161,-0.86285 2.43361,-1.41725 3.87244,-1.25 2.13394,0.24806 2.58911,0.82461 2.60571,3.30056 0.0111,1.65 -0.33815,3.51022 -0.77603,4.13383 -1.0409,1.4824 4.0026,2.28046 11.25592,1.78108 12.41176,-0.85452 19.1314,-2.00793 20.05328,-3.44209 0.59478,-0.9253 1.22553,-1.10107 1.69672,-0.47282 0.86594,1.15459 2.94404,1.15416 5.62379,-10e-4 1.3147,-0.56681 2.15005,-0.31419 2.79969,0.84665 0.50925,0.90997 1.91604,1.68612 3.12621,1.72478 2.1079,0.0673 2.11631,0.10396 0.20031,0.8721 -1.39781,0.56039 0.25823,0.99481 5.5,1.44278 4.125,0.35254 8.175,0.5642 9,0.47037 3.29394,-0.37465 4.92125,0.18609 4.40959,1.51946 -0.5806,1.51302 -5.12614,1.89265 -5.98684,0.5 -0.29743,-0.48125 -1.52673,-0.84337 -2.73177,-0.80471 -2.10378,0.0675 -2.11138,0.10239 -0.19098,0.87719 1.58682,0.6402 1.07034,0.92895 -2.5,1.39766 -2.475,0.32492 -6.525,0.55169 -9,0.50392 -6.86197,-0.13243 -25.01757,2.31349 -24.41459,3.28913 0.29294,0.474 -2.64393,0.86181 -6.52639,0.86181 l -7.059,-1.4e-4 0,-3 c 0,-1.65 -0.43875,-3 -0.975,-3 -0.53625,0 -0.73359,1.2375 -0.43852,2.75 0.39,1.99914 0.0284,3.05942 -1.32445,3.88323 -2.04112,1.24296 -4.67523,-0.0482 -4.86203,-2.38323 -0.055,-0.6875 -0.1675,-1.925 -0.25,-2.75 -0.0825,-0.825 -1.07656,-1.5 -2.20902,-1.5 -1.13246,0 -1.7809,0.45 -1.44098,1 0.33992,0.55 -0.0835,1 -0.94098,1 -0.89235,0 -1.55902,0.85524 -1.55902,2 0,1.1 -0.47656,2 -1.05902,2 -0.58246,0 -0.77507,0.45943 -0.42803,1.02096 0.97006,1.56958 -5.48127,3.81393 -10.73474,3.73451 -2.58566,-0.0391 -4.48618,-0.41897 -4.22339,-0.84417 0.75254,-1.21763 -1.19558,-1.98639 -3.14146,-1.23968 -1.64558,0.63147 -1.63459,0.73003 0.15975,1.43296 1.76485,0.69137 1.73767,0.76076 -0.32311,0.82513 -1.2375,0.0387 -2.25,0.52029 -2.25,1.07029 0,0.55 -1.125,1 -2.5,1 -1.55556,0 -2.5,0.56667 -2.5,1.5 0,0.825 -0.4199,1.5 -0.93312,1.5 -1.71375,0 -0.89017,5.99369 0.8353,6.07895 1.04342,0.0516 1.16194,0.25467 0.34159,0.58541 -0.69093,0.27855 -1.00187,0.91803 -0.69098,1.42105 0.31088,0.50302 0.0621,0.91459 -0.55279,0.91459 -0.61492,0 -0.86255,0.41338 -0.55029,0.91863 0.31226,0.50524 -0.78618,1.216 -2.44098,1.57945 -1.6548,0.36346 -3.00873,1.07508 -3.00873,1.58138 0,0.50629 -0.47656,0.92054 -1.05902,0.92054 -0.58246,0 -0.80465,-0.41157 -0.49377,-0.91459 0.31089,-0.50302 0.11167,-1.06578 -0.44271,-1.25058 -0.67583,-0.22527 -0.67788,-1.48689 -0.006,-3.8288 1.70211,-5.93491 0.75116,-9.61458 -2.19277,-8.48489 -1.87126,0.71807 -3.56595,4.25356 -5.42047,11.30826 -0.77054,2.93117 -2.07239,6.00082 -2.893,6.82143 -1.32271,1.3227 -1.66291,1.32114 -2.9978,-0.0137 -2.03965,-2.03965 -2.08226,-5.3937 -0.12519,-9.85497 1.98094,-4.51568 2.07452,-7.79326 0.2921,-10.23086 -0.94322,-1.28993 -1.80875,-1.56804 -2.92897,-0.94113 -0.87456,0.48943 -1.62207,1.22737 -1.66114,1.63987 -0.0391,0.4125 -0.14264,1.0875 -0.23015,1.5 -0.0875,0.4125 -0.23105,3.675 -0.31896,7.25 -0.20908,8.50288 -4.21773,32.33263 -6.34969,37.74625 -2.14416,5.44461 -4.47523,5.5403 -7.15191,0.29359 z m 37.97968,-55.03984 c 0,-0.55 0.7875,-1.00689 1.75,-1.01531 3.07206,-0.0269 4.59356,-1.72128 4.88657,-5.44188 0.33818,-4.29411 -1.73791,-5.51831 -8.13657,-4.7979 -6.21643,0.6999 -8.59072,5.79045 -4.77776,10.24366 1.7712,2.06861 6.27776,2.79468 6.27776,1.01143 z m -10.92987,-4.68446 c 1.21244,-3.18896 0.8787,-6.51125 -0.70646,-7.03266 -1.19087,-0.3917 -3.36367,4.68966 -3.36367,7.86634 0,2.80826 2.91226,2.21174 4.07013,-0.83368 z m 31.99943,1.54547 c 3.34078,-1.00092 3.87993,-1.60257 4.44772,-4.9633 0.35536,-2.10337 0.39372,-4.2327 0.0852,-4.73185 -0.94995,-1.53704 -6.18653,-2.1195 -9.88191,-1.09916 -3.62526,1.00098 -5.00435,3.41344 -4.24929,7.4333 0.20662,1.1 0.4101,2.5625 0.45218,3.25 0.0954,1.55849 4.15053,1.60771 9.14607,0.11101 z m -49.06956,-6.36101 c 0,-0.825 -0.45,-1.5 -1,-1.5 -0.55,0 -1,0.675 -1,1.5 0,0.825 0.45,1.5 1,1.5 0.55,0 1,-0.675 1,-1.5 z m 197,-6.57332 c 0,-3.33903 -0.31547,-4.01354 -1.75,-3.74169 -1.22302,0.23178 -1.84346,1.45838 -2.06037,4.07333 -0.26642,3.21198 -0.0187,3.74168 1.75,3.74168 1.74328,0 2.06037,-0.62689 2.06037,-4.07332 z m -189.87238,-6.67668 c 0.89341,-5.25027 -0.18611,-8.94992 -2.24093,-7.67997 -1.03032,0.63677 -1.2044,6.77893 -0.22002,7.7633 0.89396,0.89396 2.30277,0.84626 2.46095,-0.0833 z m 197.36628,-4.78482 c 6.4791,-1.5026 13.5061,-1.16644 13.5061,0.64611 0,0.48879 0.675,0.88871 1.5,0.88871 1.08333,0 1.5,-1.11111 1.5,-4 0,-2.92532 -0.41144,-4 -1.53138,-4 -0.84227,0 -1.79041,-0.675 -2.10699,-1.5 -0.31659,-0.825 -1.17032,-1.5 -1.89719,-1.5 -0.72687,0 -1.91623,-0.57875 -2.64301,-1.28612 -2.31741,-2.25548 -5.73611,-1.72987 -8.90656,1.36934 -1.6671,1.62964 -3.4833,2.68351 -4.03599,2.34192 -1.68533,-1.04159 -4.87888,2.70898 -4.87888,5.72985 0,3.3403 0.46408,3.40435 9.4939,1.31019 z M 270.28856,802.04262 c -0.34498,-3.49321 -2.81336,-5.24106 -2.81336,-1.99213 0,2.74258 1.01793,5.16512 2.17035,5.16512 0.526,0 0.81536,-1.42784 0.64301,-3.17299 z m 3.90251,-20.07701 c -0.25513,-7.38663 -2.08034,-8.38177 -2.52568,-1.37706 -0.33733,5.30579 0.19354,7.62706 1.74429,7.62706 0.57966,0 0.90686,-2.61717 0.78139,-6.25 z m 0.67714,-15.33179 c 1.71814,-4.47741 -0.38002,-10.62679 -2.4895,-7.29633 -1.03088,1.62756 -1.19319,7.2551 -0.23684,8.21145 1.09507,1.09508 2.08209,0.76378 2.72634,-0.91512 z m -2.96017,-34.52688 c -0.96209,-1.55669 -2.11952,-0.1092 -1.85217,2.31633 0.3784,3.43311 0.46698,3.4898 1.48466,0.94999 0.5162,-1.2883 0.68158,-2.75814 0.36751,-3.26632 z m -6.03983,-1.47312 c 0.92984,-2.42313 0.72205,-6.22906 -0.37717,-6.90842 -0.5413,-0.33454 -1.3574,-2.0486 -1.81357,-3.80902 -1.04719,-4.04121 -3.50255,-4.15727 -4.24742,-0.20077 -0.38415,2.04047 0.0125,3.76278 1.24018,5.38486 0.99273,1.31167 1.80497,3.44917 1.80497,4.75 0,2.67322 2.45069,3.23901 3.39301,0.78335 z M 154.78807,624.12848 c -1.32782,-1.32782 -2.79931,0.49104 -1.75902,2.17426 0.48382,0.78285 0.97617,0.78285 1.75902,0 0.78284,-0.78284 0.78284,-1.39142 0,-2.17426 z m 74.68713,-84.91287 c 0,-0.55 0.9286,-2.0125 2.06355,-3.25 6.45138,-7.03429 10.36908,-10.75079 11.33919,-10.75683 1.8445,-0.0115 5.59726,-6.43623 5.59726,-9.58254 0,-1.63109 -0.70052,-3.96575 -1.5567,-5.18812 -1.5785,-2.25362 -5.82551,-3.03113 -6.91631,-1.26618 -0.63613,1.02928 -2.05939,0.7032 -7.52699,-1.72452 -5.5881,-2.48122 -6.12601,-3.73073 -5.48101,-12.73181 0.68375,-9.54182 1.1846,-11.5 2.94141,-11.5 2.01579,0 2.5396,2.38157 2.5396,11.5466 0,7.56192 0.21119,8.49606 2.15613,9.53696 1.84037,0.98494 2.41925,0.80703 3.95283,-1.21482 2.4233,-3.19483 3.47009,-12.25468 2.03561,-17.61801 -0.62951,-2.35369 -1.14734,-5.73547 -1.15073,-7.51508 -0.003,-1.77961 -0.74228,-4.58565 -1.64198,-6.23565 -0.89969,-1.65 -2.48242,-4.6875 -3.51717,-6.75 -1.03475,-2.0625 -2.50815,-3.75 -3.27421,-3.75 -0.76607,0 -1.99041,-1.35 -2.72077,-3 -0.73036,-1.65 -1.84181,-3 -2.46988,-3 -1.38618,0 -4.36983,-6.0217 -4.36983,-8.81934 0,-3.28738 1.09635,-5.18066 3,-5.18066 0.98231,0 2.04504,0.675 2.36163,1.5 0.41018,1.06893 2.09336,1.50356 5.85699,1.51238 4.9076,0.0115 5.43803,0.25426 7.4948,3.43018 1.21739,1.87979 2.50474,4.57847 2.86078,5.99707 0.35605,1.4186 1.05485,2.83111 1.55289,3.13892 0.49804,0.3078 0.6763,0.93055 0.39613,1.38387 -0.62479,1.01094 4.19698,2.32854 5.52277,1.50916 0.5247,-0.32429 0.95401,-1.23806 0.95401,-2.0306 0,-0.79254 0.46973,-1.44098 1.04384,-1.44098 0.57411,0 0.97079,0.5625 0.88151,1.25 -0.36417,2.80447 0.17614,4.48182 2.11361,6.56144 2.54634,2.73318 4.96104,2.82496 4.96104,0.18856 0,-1.1 0.48032,-2 1.06739,-2 0.59252,0 0.79986,0.84289 0.46605,1.89463 -1.01178,3.18784 1.9902,5.10537 7.99268,5.10537 5.34119,0 5.38829,-0.0268 6.02769,-3.43511 0.76195,-4.06159 0.0476,-5.56489 -2.64421,-5.56489 -1.0848,0 -2.23139,-0.675 -2.54797,-1.5 -0.82367,-2.14643 -4.01117,-1.85046 -6.46163,0.6 -2.54244,2.54244 -3.16685,1.91652 -4.80011,-4.81181 -1.24312,-5.12112 -0.94539,-7.28819 1.00133,-7.28819 2.15948,0 3.9582,-2.81892 5.93951,-9.3083 2.01103,-6.58672 2.80378,-7.96953 7.78268,-13.57562 l 2.3234,-2.61608 -0.60588,2.80349 c -0.33324,1.54192 -1.91124,4.60549 -3.50667,6.80792 -3.40237,4.69683 -4.47503,8.72554 -3.58557,13.46676 0.47083,2.50978 1.16294,3.42183 2.59662,3.42183 1.07508,0 1.95469,-0.49602 1.95469,-1.10227 0,-2.13877 7.47954,-16.89773 8.56343,-16.89773 0.60423,0 1.70069,-1.125 2.43657,-2.5 1.51967,-2.83953 3.1912,-3.17948 4.98802,-1.01443 0.98263,1.184 0.9003,3.16326 -0.40557,9.75 -2.30644,11.63357 -2.54193,32.05341 -0.38501,33.38645 0.45935,0.2839 0.57629,0.93508 0.25985,1.44708 -0.31643,0.51199 0.0781,0.9309 0.8767,0.9309 1.35891,0 2.88338,-2.22757 3.07964,-4.5 0.0475,-0.55 1.1112,-1.14541 2.36377,-1.32314 3.42258,-0.48563 7.24573,-4.46048 6.75269,-7.02063 -0.22919,-1.19006 -0.69377,-2.61206 -1.03241,-3.15999 -0.93021,-1.5051 -3.48457,-1.19399 -4.13605,0.50376 -0.31659,0.825 -1.01439,1.5 -1.55068,1.5 -1.01328,0 -0.87522,-3.09359 1.20033,-26.89806 1.37723,-15.79541 0.78088,-18.10194 -4.68026,-18.10194 -1.98998,0 -3.33718,0.50324 -3.34633,1.25 -0.0104,0.84746 -0.35694,0.76695 -1.07613,-0.25 -0.79831,-1.12881 -1.18633,-1.19068 -1.56802,-0.25 -0.68764,1.69468 -2.16195,1.57145 -4.0739,-0.3405 -1.65168,-1.65168 -2.04363,-1.63378 -13.76664,0.62895 -4.10876,0.79306 -10.72809,0.91564 -21,0.38888 -23.12972,-1.18611 -28.5,-1.22845 -28.5,-0.2247 0,0.50957 -1.3098,2.02862 -2.91068,3.37566 -4.90312,4.12571 -6.3474,9.9924 -6.63412,26.948 -0.21452,12.68568 -0.56481,15.64528 -2.24878,19 -3.76265,7.49575 -6.0355,39.6607 -2.96166,41.91286 1.89248,1.38659 4.06245,5.7473 6.25054,12.56085 1.62412,5.05738 4.26174,10.7861 5.52505,12 0.2862,0.275 1.06405,1.7375 1.72857,3.25 0.66451,1.5125 1.66785,2.75 2.22964,2.75 0.56179,0 1.02144,0.6375 1.02144,1.41667 0,0.77916 0.5625,1.64364 1.25,1.92105 2.27573,0.91827 7.75,0.67972 7.75,-0.33772 z m 23.03914,-90.05 c -0.0215,-3.6025 0.3565,-6.9775 0.84006,-7.5 0.48356,-0.5225 1.45198,-2.75 2.15205,-4.95 1.32798,-4.17321 4.58622,-7.85445 6.11543,-6.90935 0.48869,0.30203 0.0119,1.66355 -1.05947,3.02561 -1.0714,1.36206 -2.64045,5.52095 -3.48678,9.24199 -0.84633,3.72103 -2.21004,8.31266 -3.03046,10.20363 l -1.49169,3.43812 -0.0391,-6.55 z m -6.54627,-6.97247 c -1.28726,-4.05578 1.38363,-10.78993 3.70938,-9.35253 1.92315,1.18857 -0.13238,11.375 -2.29538,11.375 -0.42465,0 -1.06095,-0.91011 -1.414,-2.02247 z m 171.21877,81.77247 c 1.42919,-5.39227 0.67123,-10.31264 -1.33246,-8.64973 -1.48342,1.23113 -2.01403,12.89973 -0.58658,12.89973 0.43592,0 1.29949,-1.9125 1.91904,-4.25 z M 52.31468,516.66856 c 1.77084,-3.88657 1.43229,-5.6894 -1.92599,-10.25595 -1.69758,-2.30835 -2.84407,-4.197 -2.54775,-4.197 0.29632,0 -0.50385,-1.125 -1.77816,-2.5 -1.27431,-1.375 -3.14343,-2.5 -4.1536,-2.5 -1.01017,0 -3.74954,-2.025 -6.0875,-4.5 -3.1865,-3.37328 -4.99607,-4.5 -7.22723,-4.5 -1.63702,0 -3.65139,-0.675 -4.47639,-1.5 -2.02006,-2.02005 -5.62187,-1.89587 -7.25081,0.25 -1.56237,2.05816 -1.85066,11.84853 -0.37574,12.76008 0.55897,0.34546 0.77663,1.01593 0.48369,1.48992 -0.29294,0.47399 -0.0679,1.14899 0.5,1.5 0.56794,0.35101 0.79636,1.02049 0.50759,1.48773 -0.28878,0.46724 0.8888,1.16006 2.61682,1.5396 1.9732,0.43338 2.69171,0.96828 1.93166,1.43802 -1.41038,0.87166 4.46585,2.00723 10.47169,2.02364 2.78055,0.008 4.55803,0.63032 5.74021,2.01101 0.94185,1.1 2.42091,2 3.2868,2 0.86589,0 2.7103,1.35 4.09868,3 3.08652,3.66812 4.66833,3.78394 6.18603,0.45295 z m 208.80473,-8.95224 c -0.18579,-3.21992 -1.27349,-3.22032 -1.88896,-7.1e-4 -0.30452,1.59298 -0.0224,2.5 0.77764,2.5 0.71095,0 1.19298,-1.08407 1.11132,-2.49929 z m 8.35579,-1.50071 c 0,-0.55 0.81399,-1 1.80887,-1 1.9675,0 5.64017,-2.33361 5.77492,-3.66939 0.0461,-0.45683 0.55784,-1.96391 1.13722,-3.34906 1.64094,-3.92307 2.14973,-9.71081 0.95838,-10.90216 -0.5938,-0.5938 -0.65201,-1.08628 -0.12939,-1.0947 0.5225,-0.008 0.29009,-0.43269 -0.51647,-0.94281 -0.97791,-0.61849 -1.37132,-2.24527 -1.18088,-4.88295 0.31697,-4.39004 -0.45781,-5.33645 -3.67911,-4.49406 -1.57855,0.4128 -2.17354,1.33488 -2.17354,3.36843 0,1.54002 0.5625,3.02701 1.25,3.30442 0.7292,0.29424 0.50099,0.53728 -0.54775,0.58333 -0.98876,0.0434 -2.84938,-1.05578 -4.13471,-2.44268 -2.73645,-2.95267 -3.15229,-2.31014 -3.4595,5.34541 -0.1175,2.92808 -0.63988,6.44487 -1.16084,7.8151 -1.57974,4.15502 -1.15532,10.48265 0.8028,11.96907 2.07321,1.5738 5.25,1.81103 5.25,0.39205 z m -18,-6.5 c 0,-0.825 0.36591,-1.5 0.81314,-1.5 0.44722,0 0.91796,-2.025 1.04608,-4.5 0.21823,-4.21604 0.0723,-4.5 -2.31314,-4.5 -2.40985,0 -2.54608,0.28537 -2.54608,5.33333 0,2.93334 0.3,5.63334 0.66667,6 1.15063,1.15064 2.33333,0.72824 2.33333,-0.83333 z m 39.36971,-16.75 c 1.17642,-4.38978 0.74474,-6.91869 -1.11971,-6.55963 -1.64703,0.31719 -1.94413,1.86837 -1.4,7.30963 0.22735,2.27348 1.83792,1.79409 2.51971,-0.75 z m -29.55712,-4.68192 c 0.2325,-3.18076 -0.0237,-4.16581 -1,-3.84456 -0.73844,0.24299 -1.44932,2.30254 -1.62518,4.7084 -0.2325,3.18076 0.0237,4.16581 1,3.84456 0.73844,-0.24299 1.44932,-2.30254 1.62518,-4.7084 z m 22.64995,-14.31808 c 1.47092,-8.64206 2.49215,-29.19531 1.49993,-30.18753 -1.43994,-1.43994 -2.4068,0.34884 -3.92963,7.27022 -0.6858,3.11702 -1.70769,6.91532 -2.27087,8.44066 -1.28085,3.46914 -1.11452,13.19938 0.26985,15.7861 1.60251,2.99433 3.8092,2.34217 4.43072,-1.30945 z m 108.53746,-3.69098 c 0,-2.16754 -0.402,-4.18943 -0.89333,-4.49309 -1.18378,-0.73162 -2.35149,4.08735 -1.57968,6.51911 1.04011,3.2771 2.47301,2.10319 2.47301,-2.02602 z m -88.25,-6.30902 c -0.47189,-1.41567 -2.07998,-1.26005 -2.58333,0.25 -0.18334,0.55 0.41666,1 1.33333,1 0.91667,0 1.47917,-0.5625 1.25,-1.25 z m 0.25,-25.75 c 0,-1.1 -0.45,-2 -1,-2 -0.55,0 -1,0.9 -1,2 0,1.1 0.45,2 1,2 0.55,0 1,-0.9 1,-2 z m 4.35546,-10.28015 c 0.67402,-2.68548 -0.20978,-6.71985 -1.47209,-6.71985 -0.48585,0 -0.88337,2.025 -0.88337,4.5 0,4.75414 1.3905,6.06458 2.35546,2.21985 z m 9.34639,-166.35133 c -0.34732,-0.34732 -0.1961,-1.44501 0.33604,-2.43931 1.12546,-2.10295 -0.60102,-3.76608 -2.22436,-2.14274 -1.2183,1.2183 -0.12973,5.21353 1.42052,5.21353 0.60461,0 0.81512,-0.28417 0.4678,-0.63148 z m -69.13527,646.7392 c -0.44683,-0.72297 0.43736,-1.10772 2.54566,-1.10772 1.77665,0 4.00854,-0.70431 4.95974,-1.56514 1.80812,-1.63633 3.31719,-0.68258 2.08207,1.31588 -1.01764,1.64658 -8.73354,2.73867 -9.58747,1.35698 z M 399.4752,888.21561 c -0.93452,-1.74616 -0.76049,-2 1.3712,-2 1.94923,0 2.3361,0.40329 1.91855,2 -0.28766,1.1 -0.9047,2 -1.3712,2 -0.4665,0 -1.32985,-0.9 -1.91855,-2 z m -128,-1.04797 c 0,-0.6413 -0.675,-0.90699 -1.5,-0.5904 -0.825,0.31658 -1.5,0.13972 -1.5,-0.39301 0,-1.23881 3.69566,-1.27008 4.45729,-0.0377 0.31644,0.512 0.11799,1.21356 -0.44098,1.55902 -0.55897,0.34544 -1.01631,0.10339 -1.01631,-0.53791 z m 25.35162,-2.4781 c -0.94796,-2.47036 0.60802,-3.36148 5.66821,-3.24621 5.71157,0.1301 5.62375,0.53876 -0.62557,2.91096 -3.74766,1.42258 -4.60355,1.47949 -5.04264,0.33525 z m 90.31674,0.10421 c -0.35379,-0.92196 -2.04119,-1.37667 -4.94574,-1.33277 -5.35851,0.081 -7.79998,-1.06295 -5.27926,-2.47361 2.41359,-1.35072 13.28008,0.0652 13.95271,1.81801 0.29764,0.77563 1.20373,1.41023 2.01353,1.41023 3.4178,0 2.17138,1.68855 -1.34822,1.82646 -2.49369,0.0977 -4.04574,-0.34331 -4.39302,-1.24832 z m -69.91836,-0.31969 c -6.80865,-0.35287 -7.74151,-0.86694 -5.55,-3.05845 1.44926,-1.44926 6.8,-1.60664 6.8,-0.2 0,1.63777 1.85829,1.14171 4.09245,-1.09245 1.25232,-1.25232 1.89007,-2.86639 1.58839,-4.02003 -0.36273,-1.38707 0.29843,-2.34256 2.35788,-3.40754 2.94845,-1.5247 5.29382,-2.01939 3.38828,-0.71467 -0.61191,0.41898 -0.88398,2.61437 -0.63312,5.10887 0.32681,3.24986 0.93282,4.5031 2.35766,4.8757 1.71623,0.4488 1.63938,0.64595 -0.73118,1.87582 -1.45694,0.75586 -3.61004,1.28616 -4.78467,1.17844 -1.17463,-0.10772 -5.17319,-0.35328 -8.88569,-0.54569 z m 30.73242,-0.91889 c -2.78407,-2.78407 0.0831,-3.71049 9.51758,-3.07523 3.79357,0.25544 5.10728,1.29253 4.30049,3.39499 -0.78795,2.05336 -11.6974,1.80091 -13.81807,-0.31976 z m 64.62186,-3.25395 c -2.02027,-1.27923 -0.56185,-4.08797 2.11434,-4.07196 4.329,0.0259 6.64657,1.12596 6.49901,3.08479 -0.11198,1.48658 -0.91516,1.89822 -3.68043,1.88625 -1.94546,-0.008 -4.16527,-0.41301 -4.93292,-0.89908 z M 262.9752,875.15935 c -0.55,-0.52595 -2.0841,-1.78057 -3.40911,-2.78805 -3.67839,-2.7969 -1.84079,-4.01374 6.09924,-4.03883 5.57461,-0.0176 7.45177,0.35412 8.48482,1.68026 1.24713,1.60096 1.3893,1.59814 2.37548,-0.0471 0.67484,-1.12585 2.27952,-1.75 4.49926,-1.75 1.89767,0 3.45031,-0.45 3.45031,-1 0,-0.58824 3.5,-1 8.5,-1 5,0 8.5,-0.41176 8.5,-1 0,-0.55 0.9,-1 2,-1 1.1,0 2,0.45 2,1 0,0.55 0.7301,1 1.62244,1 1.3288,0 1.39713,0.27149 0.37756,1.5 -0.8601,1.03636 -0.89795,1.5 -0.12244,1.5 1.31877,0 1.06492,2.17492 -0.37756,3.23469 -1.56273,1.14811 -6.97429,0.89102 -8.25762,-0.39231 -0.81747,-0.81747 -1.53736,-0.84815 -2.45,-0.10441 -0.71081,0.57926 -3.54238,1.35051 -6.29238,1.71388 -2.75,0.36336 -5.15,1.08535 -5.33333,1.60441 -0.18334,0.51906 -0.77239,0.94374 -1.30902,0.94374 -0.53663,0 -0.69757,-0.45 -0.35765,-1 0.37381,-0.60483 -1.00929,-1 -3.5,-1 -2.49071,0 -3.87381,0.39517 -3.5,1 0.80574,1.30372 -11.63412,1.24988 -13,-0.0563 z m 138.21025,-0.94374 c -0.6514,-2.49097 2.38053,-2.76636 4.71832,-0.42857 2.15496,2.15495 2.00715,2.42857 -1.31194,2.42857 -2.04236,0 -3.03592,-0.58335 -3.40638,-2 z m -86.03491,-0.65799 c -1.00157,-1.00158 1.33753,-3.34201 3.34012,-3.34201 2.69665,0 3.22707,2.70077 0.66534,3.38781 -2.80709,0.75285 -3.21143,0.74823 -4.00546,-0.0458 z m 18.82466,-1.26532 -3,-0.68669 3.5,-0.59257 c 2.32925,-0.39436 3.9898,-0.12509 4.96429,0.805 1.27706,1.21888 1.21314,1.38244 -0.5,1.27926 -1.08036,-0.0651 -3.31429,-0.42733 -4.96429,-0.805 z m 53.5,-1.57669 c -0.68469,-0.825 -1.80969,-1.5 -2.5,-1.5 -0.69031,0 -1.81531,-0.675 -2.5,-1.5 -0.68469,-0.825 -2.53979,-1.5 -4.12244,-1.5 -1.58266,0 -2.87756,-0.405 -2.87756,-0.9 0,-2.77357 12.28818,0.0453 15.8874,3.64454 1.23495,1.23495 1.23843,1.56263 0.0248,2.3309 -1.94486,1.23113 -2.47794,1.15272 -3.91218,-0.57544 z m -38.73305,-0.13768 c 1.52183,-0.27414 2.50777,-0.91781 2.19099,-1.43038 -0.31679,-0.51257 0.93558,-0.93194 2.78304,-0.93194 1.84746,0 3.92149,-0.5625 4.60896,-1.25 0.68746,-0.6875 3.13996,-1.29217 5.45,-1.34371 2.31003,-0.0515 5.43756,-0.43782 6.95006,-0.8584 1.80592,-0.50218 2.75,-0.38419 2.75,0.3437 0,0.60963 -1.15156,1.10841 -2.55902,1.10841 -1.45136,0 -2.2915,0.43284 -1.94098,1 0.35873,0.58044 -0.77028,1.0639 -2.69098,1.15231 -4.68503,0.21566 -5.15126,0.30185 -6.62693,1.22511 -0.72484,0.4535 -4.09984,0.97278 -7.5,1.15394 -3.40015,0.18116 -4.93696,0.10509 -3.41514,-0.16904 z m -17.03778,-10.54982 c 0.2177,-0.65313 0.93051,-1.36573 1.58401,-1.58356 0.73075,-0.24358 0.95424,0.21359 0.58051,1.1875 -0.69752,1.81771 -2.76448,2.19592 -2.16452,0.39606 z m -43.22917,-25.3125 c 0,-0.825 0.43588,-1.5 0.96862,-1.5 0.53273,0 0.70959,0.675 0.39301,1.5 -0.31659,0.825 -0.75246,1.5 -0.96862,1.5 -0.21615,0 -0.39301,-0.675 -0.39301,-1.5 z m 6.29648,0.074 c 0.98806,-0.74933 2.76396,-1.10942 3.94644,-0.80019 2.06527,0.54008 2.07329,0.59224 0.20353,1.32394 -1.07055,0.41894 -2.84645,0.77903 -3.94645,0.80019 -1.89978,0.0366 -1.90998,-0.0298 -0.20352,-1.32394 z m 14.70352,-3.99221 c 0,-3.66855 -1.02299,-5.58179 -2.98454,-5.58179 -0.97382,0 -2.35113,-0.69954 -3.06071,-1.55453 -1.07695,-1.29763 -0.94737,-1.8973 0.78415,-3.62881 1.66159,-1.66159 2.78923,-1.94016 5.66769,-1.40016 1.97638,0.37077 3.59341,1.10374 3.59341,1.62881 0,0.52508 0.70156,0.95469 1.55902,0.95469 0.85746,0 1.2809,-0.45 0.94098,-1 -1.02688,-1.66152 8.44843,-1.19443 10.14286,0.5 0.825,0.825 2.5663,1.5 3.86955,1.5 2.53263,0 4.12328,1.48909 2.59778,2.4319 -1.22146,0.75491 -0.19179,4.55049 1.25644,4.63149 0.62335,0.0349 0.008,0.52664 -1.36663,1.09285 -1.375,0.5662 -5.9875,1.02714 -10.25,1.02429 -4.2625,-0.003 -7.75,0.40538 -7.75,0.90715 0,0.50178 -1.125,0.91232 -2.5,0.91232 -1.97745,0 -2.5,-0.50545 -2.5,-2.41821 z m 10,-1.58179 c 0,-0.55 -0.9,-1 -2,-1 -1.1,0 -2,0.45 -2,1 0,0.55 0.9,1 2,1 1.1,0 2,-0.45 2,-1 z m -0.5,-3 c -0.33992,-0.55 -1.26648,-1 -2.05902,-1 -0.79254,0 -1.44098,0.45 -1.44098,1 0,0.55 0.92656,1 2.05902,1 1.13246,0 1.7809,-0.45 1.44098,-1 z m -29.76759,-0.91528 c -0.27547,-1.0534 -1.56546,-2.09723 -2.86663,-2.31962 -2.22748,-0.38071 -2.1904,-0.45313 0.63422,-1.2387 1.65,-0.45889 3.23637,-1.19048 3.52526,-1.62575 0.50768,-0.76492 7.61735,0.40863 8.63387,1.42514 0.27537,0.27538 -0.26204,1.66473 -1.19424,3.08745 -2.14517,3.27394 -7.93549,3.71919 -8.73248,0.67148 z m 56.53842,-4.68889 c 0.33229,-0.33229 1.19479,-0.36781 1.91667,-0.0789 0.79773,0.31922 0.56078,0.55618 -0.60417,0.60416 -1.05416,0.0434 -1.64479,-0.19293 -1.3125,-0.52522 z m 9.72917,-1.39583 c 1.95837,-1.2656 3.28218,-1.2656 2.5,0 -0.33992,0.55 -1.37898,0.99311 -2.30902,0.98469 -1.45727,-0.0132 -1.48367,-0.14929 -0.19098,-0.98469 z m 3,-449.3 c 0,-1.94747 2.13145,-3.7 4.5,-3.7 2.61822,0 4.51402,1.79988 3.81487,3.62186 -0.70011,1.82446 -8.31487,1.89602 -8.31487,0.0781 z m -12.43631,-94.49933 c -0.88931,-2.80197 0.94028,-6.0651 3.71517,-6.62612 1.22163,-0.24698 3.46852,-0.71335 4.9931,-1.03637 2.01112,-0.4261 2.94253,-0.1428 3.39342,1.03219 0.88998,2.31926 -4.11762,6.39652 -7.17513,5.84208 -1.52442,-0.27643 -2.71666,0.1697 -3.31611,1.24087 -0.83496,1.49199 -1.00875,1.44314 -1.61045,-0.45265 z"
       id="path2890" />
  </g>
</svg>
