<?xml version="1.0" encoding="UTF-8" standalone="no"?>
<!-- Created with Inkscape (http://www.inkscape.org/) -->

<svg
   xmlns:dc="http://purl.org/dc/elements/1.1/"
   xmlns:cc="http://creativecommons.org/ns#"
   xmlns:rdf="http://www.w3.org/1999/02/22-rdf-syntax-ns#"
   xmlns:svg="http://www.w3.org/2000/svg"
   xmlns="http://www.w3.org/2000/svg"
   xmlns:sodipodi="http://sodipodi.sourceforge.net/DTD/sodipodi-0.dtd"
   xmlns:inkscape="http://www.inkscape.org/namespaces/inkscape"
   width="330.56714"
   height="760.60767"
   id="svg3438"
   version="1.1"
   inkscape:version="0.47 r22583"
   sodipodi:docname="Nouveau document 36">
  <defs
     id="defs3440">
    <inkscape:perspective
       sodipodi:type="inkscape:persp3d"
       inkscape:vp_x="0 : 526.18109 : 1"
       inkscape:vp_y="0 : 1000 : 0"
       inkscape:vp_z="744.09448 : 526.18109 : 1"
       inkscape:persp3d-origin="372.04724 : 350.78739 : 1"
       id="perspective3446" />
    <inkscape:perspective
       id="perspective3516"
       inkscape:persp3d-origin="0.5 : 0.33333333 : 1"
       inkscape:vp_z="1 : 0.5 : 1"
       inkscape:vp_y="0 : 1000 : 0"
       inkscape:vp_x="0 : 0.5 : 1"
       sodipodi:type="inkscape:persp3d" />
  </defs>
  <sodipodi:namedview
     id="base"
     pagecolor="#ffffff"
     bordercolor="#666666"
     borderopacity="1.0"
     inkscape:pageopacity="0.0"
     inkscape:pageshadow="2"
     inkscape:zoom="1.0513672"
     inkscape:cx="304.55547"
     inkscape:cy="389.44637"
     inkscape:document-units="px"
     inkscape:current-layer="layer1"
     showgrid="false"
     inkscape:window-width="1280"
     inkscape:window-height="996"
     inkscape:window-x="0"
     inkscape:window-y="0"
     inkscape:window-maximized="1" />
  <metadata
     id="metadata3443">
    <rdf:RDF>
      <cc:Work
         rdf:about="">
        <dc:format>image/svg+xml</dc:format>
        <dc:type
           rdf:resource="http://purl.org/dc/dcmitype/StillImage" />
        <dc:title></dc:title>
      </cc:Work>
    </rdf:RDF>
  </metadata>
  <g
     inkscape:label="Calque 1"
     inkscape:groupmode="layer"
     id="layer1"
     transform="translate(-70.444529,-161.20088)">
    <path
       style="fill:#000000"
       d="m 134.62125,921.4626 c -0.69093,-0.31041 -1.00187,-0.97596 -0.69098,-1.47898 0.31088,-0.50302 -0.36131,-0.91459 -1.49377,-0.91459 -1.13246,0 -2.05902,-0.42223 -2.05902,-0.93828 0,-0.51606 -1.3079,-2.37025 -2.90645,-4.12044 -1.67071,-1.8292 -3.11664,-4.72534 -3.40081,-6.81172 -2.30508,-16.92392 -9.74928,-44.55354 -12.26398,-45.51852 -0.76609,-0.29398 -1.68023,-2.33147 -2.03143,-4.52776 -0.37695,-2.3573 -1.8581,-5.34314 -3.61541,-7.28826 -3.70368,-4.09953 -4.32989,-5.73122 -5.18911,-13.52124 -0.37771,-3.42442 -1.337835,-7.47442 -2.133615,-9 -0.79578,-1.52558 -1.44964,-3.75972 -1.45303,-4.96476 -0.003,-1.20504 -0.4196,-2.4465 -0.92491,-2.7588 -0.50531,-0.3123 -1.87244,-4.72636 -3.03805,-9.80902 -2.68357,-11.70165 -6.10945,-21.16072 -8.24756,-22.77201 -1.19643,-0.90164 -0.44568,-4.96919 0.91716,-4.96919 0.8589,0 1.2872,-1.49731 1.2872,-4.5 0,-4.94017 -1.94645,-6.17616 -3.66412,-2.32671 -0.94313,2.11362 -1.04369,2.07635 -3.66304,-1.3578 -4.25144,-5.57392 -5.22703,-16.3535 -2.77874,-30.70305 1.44344,-8.46004 1.66891,-12.11123 0.91623,-14.83719 -0.61018,-2.2099 -0.72091,-8.89568 -0.2848,-17.19549 0.97185,-18.4953 0.6845,-50.25778 -0.52091,-57.57976 -0.54327,-3.3 -1.66423,-10.05 -2.49101,-15 -0.94357,-5.64923 -1.26999,-11.46164 -0.87672,-15.61183 0.41194,-4.34733 0.0284,-10.34247 -1.11999,-17.50445 -1.30706,-8.15187 -1.4918,-11.81508 -0.73422,-14.55882 0.76987,-2.78823 0.67762,-4.31128 -0.3852,-6.35986 -1.76181,-3.3959 -1.77338,-7.14245 -0.0374,-12.08931 0.74808,-2.13165 1.68727,-6.51773 2.08709,-9.74684 0.87536,-7.06964 2.77702,-12.7307 5.61565,-16.71718 1.31757,-1.85037 2.56508,-6.03386 3.33501,-11.18393 0.67653,-4.52528 1.70455,-9.12778 2.2845,-10.22778 0.57995,-1.1 1.58592,-5.15 2.23548,-9 0.64957,-3.85 1.63249,-8.8 2.18426,-11 0.55178,-2.2 1.47694,-6.025 2.05592,-8.5 0.57898,-2.475 1.45527,-4.9275 1.94732,-5.45 0.49205,-0.5225 0.89464,-1.83295 0.89464,-2.91211 0,-1.07916 0.64887,-4.25166 1.44194,-7.05 0.79307,-2.79834 2.1977,-8.23789 3.12141,-12.08789 1.739665,-7.25089 4.517575,-13.99799 7.719735,-18.75 1.01921,-1.5125 1.48496,-2.76368 1.035,-2.78041 -0.44995,-0.0167 -0.0306,-0.48908 0.93191,-1.04969 0.9625,-0.5606 1.75,-2.03192 1.75,-3.26959 0,-1.23767 0.36941,-2.67781 0.82092,-3.20031 0.45151,-0.5225 1.64686,-5.30405 2.65633,-10.62566 1.43603,-7.57029 2.45366,-10.39902 4.67673,-13 1.56273,-1.82839 2.84238,-4.18903 2.84367,-5.24588 0.002,-1.92901 4.57012,-14.20627 5.982,-16.07846 1.13376,-1.5034 4.76847,-13.44513 5.47866,-18 0.55621,-3.5673 2.24834,-8.10872 4.6575,-12.5 4.27795,-7.7976 8.92526,-21.85347 11.24146,-34 4.55391,-23.88142 7.14687,-30.94424 12.45005,-33.91205 2.06778,-1.15719 2.07757,-5.9005 0.021,-10.19943 -0.95021,-1.98632 -2.2836,-6.62865 -2.96308,-10.31631 -1.1655,-6.32541 -1.4704,-6.84253 -5.3882,-9.13851 -2.28403,-1.33854 -4.71878,-2.4337 -5.41056,-2.4337 -2.99875,0 -6.83153,-4.08909 -8.10881,-8.65107 -2.14851,-7.67383 -1.84796,-13.86811 0.79233,-16.32939 1.2375,-1.1536 2.25,-2.55461 2.25,-3.11337 0,-0.55875 1.72128,-3.57872 3.82507,-6.71104 4.23782,-6.30968 7.13761,-13.02498 6.45357,-14.94513 -0.24492,-0.6875 0.0422,-1.25 0.63803,-1.25 0.59583,0 1.08333,-0.66986 1.08333,-1.48857 0,-0.81871 0.7875,-2.4083 1.75,-3.53242 0.9625,-1.12412 1.79068,-2.36676 1.84039,-2.76143 0.0497,-0.39467 0.89202,-2.51758 1.87179,-4.71758 0.97976,-2.2 1.91715,-4.675 2.08309,-5.5 0.16594,-0.825 0.37057,-1.5 0.45473,-1.5 0.0842,0 0.29891,-0.675 0.47722,-1.5 0.1783,-0.825 0.89366,-2.85 1.58969,-4.5 0.69603,-1.65 1.32533,-3.225 1.39845,-3.5 0.75363,-2.83422 1.81138,-5 2.44197,-5 0.4249,0 1.35553,-1.76645 2.06806,-3.92544 1.51234,-4.58242 5.71609,-9.52448 8.98378,-10.5616 1.43306,-0.45484 2.06123,-0.35498 1.67707,0.2666 -0.33782,0.5466 -0.0209,1.48627 0.70436,2.08815 0.76463,0.63459 1.13682,2.33279 0.88592,4.04226 -0.39769,2.70968 -0.16166,2.97804 2.92041,3.32039 l 3.35307,0.37244 -2.5,1.13521 c -2.44332,1.10948 -2.44899,1.13665 -0.25,1.1986 1.30516,0.0368 2.25,0.69328 2.25,1.56339 0,0.87879 0.91111,1.5 2.2,1.5 2.5363,0 1.38852,1.54405 -1.7,2.28693 -1.25054,0.3008 -0.73624,0.52454 1.37244,0.59707 2.62476,0.0903 3.13628,0.40057 2.30721,1.39954 -1.78451,2.1502 0.25028,4.02713 3.80088,3.50601 2.37071,-0.34795 3.50049,0.008 4.35133,1.37024 1.6722,2.67762 2.19806,2.35552 4.75067,-2.90979 2.47038,-5.09572 2.60164,-5.45999 2.79247,-7.75 0.0687,-0.825 0.575,-1.5 1.125,-1.5 0.55,0 0.94671,0.3375 0.88158,0.75 -0.0651,0.4125 -0.0651,2.2125 0,4 0.0936,2.56794 0.54735,3.25 2.16226,3.25 1.12411,0 1.9508,-0.5625 1.8371,-1.25 -0.1137,-0.6875 0.14302,-2.49813 0.5705,-4.02363 0.67728,-2.41692 1.22254,-2.74363 4.23987,-2.54042 3.84514,0.25895 5.51591,2.30564 4.63428,5.67699 -0.96709,3.69817 1.59829,10.96816 4.03911,11.44636 1.6922,0.33153 1.56464,0.44659 -0.6147,0.55452 -3.63804,0.18016 -3.56215,2.13618 0.0829,2.13618 2.87836,0 3.59354,1.88299 1.81076,4.76758 -0.53121,0.85952 0.0497,1.23242 1.91979,1.23242 2.16952,0 2.46229,-0.26408 1.53349,-1.38322 -0.89173,-1.07447 -0.7695,-1.52845 0.54761,-2.03387 2.25084,-0.86373 3.03931,0.63755 2.85976,5.44508 -0.0816,2.18461 0.22157,3.97201 0.67368,3.97201 0.45212,0 0.76874,0.3375 0.70361,0.75 -0.0651,0.4125 -0.0307,0.975 0.0765,1.25 0.81301,2.08537 0.67332,4.01644 -0.29657,4.09968 -0.63884,0.0548 -0.0365,0.44396 1.33848,0.86474 l 2.5,0.76506 -2.5,1.07187 -2.5,1.07188 2.63342,0.0634 c 2.1,0.0505 2.73981,-0.49314 3.15863,-2.68407 0.28887,-1.5111 0.14566,-2.98203 -0.31824,-3.26873 -0.46389,-0.28671 -1.06078,-1.86285 -1.3264,-3.50255 -0.26561,-1.6397 -0.58303,-3.20627 -0.70537,-3.48127 -0.63434,-1.42591 -0.32668,-7.58429 0.40562,-8.11937 0.46621,-0.34065 0.91621,-1.80284 1,-3.24929 0.0838,-1.44646 0.48985,-2.63025 0.90235,-2.63063 0.4125,-3.9e-4 0.75,-0.67571 0.75,-1.50071 0,-1.6037 3.51598,-2.09218 4.42874,-0.6153 0.95396,1.54353 6.57126,1.92145 6.57126,0.44211 0,-0.72975 0.66088,-1.32681 1.46862,-1.32681 0.95681,0 1.24688,0.57782 0.83236,1.65805 -0.54775,1.4274 -0.0913,1.57286 3.28138,1.04566 3.4015,-0.53169 3.68531,-0.43789 2.15423,0.71201 -1.58147,1.18773 -1.34447,1.39137 2.29706,1.97367 2.26841,0.36273 3.79299,1.0821 3.4544,1.62995 -0.33335,0.53936 -0.24203,1.01512 0.20293,1.05723 0.44496,0.0421 3.47499,0.25503 6.73341,0.47314 3.25841,0.21812 6.18792,0.82299 6.51001,1.34415 0.3221,0.52116 1.81863,1.25703 3.32562,1.63526 1.50699,0.37823 2.73998,1.08891 2.73998,1.57929 0,0.49037 1.24999,0.89159 2.77776,0.89159 1.54027,0 3.54065,0.89099 4.49021,2 0.94185,1.1 2.41842,2 3.28126,2 0.86284,0 1.31174,0.41594 0.99754,0.92432 -0.31419,0.50837 0.18146,1.07087 1.10145,1.25 0.97469,0.18977 2.14021,1.99299 2.79302,4.32118 1.07556,3.83588 1.32926,4.02876 6.35035,4.828 2.87652,0.45787 4.97361,1.24739 4.66021,1.75449 -0.68243,1.10419 0.29991,1.22481 7.75291,0.95201 8.61674,-0.31539 11.79529,0.63597 11.79529,3.5304 0,1.74253 -0.70236,2.57778 -2.55964,3.04393 -1.62365,0.4075 -2.36648,1.14582 -2.03139,2.01905 0.29054,0.75714 0.0658,1.37662 -0.49937,1.37662 -0.5652,0 -0.73101,0.47994 -0.36848,1.06653 0.36254,0.5866 -0.17341,1.69729 -1.19098,2.4682 -1.79294,1.35833 -1.79088,1.40265 0.0665,1.43347 1.05416,0.0175 1.61867,0.32979 1.25447,0.694 -0.36421,0.36421 -2.35171,0.62587 -4.41667,0.58146 -2.81517,-0.0605 -3.25411,0.1179 -1.75447,0.7132 1.89023,0.75035 1.87059,0.81449 -0.35786,1.16853 l -2.35782,0.37461 3.01018,3 c 1.6556,1.65 4.21736,4.0125 5.69281,5.25 1.47544,1.2375 2.40388,2.25 2.06319,2.25 -0.34068,0 0.76849,1.35673 2.46483,3.01495 1.69634,1.65823 2.81833,3.44522 2.49332,3.9711 -0.33957,0.54944 0.95572,0.898 3.04516,0.81945 1.99984,-0.0752 3.86651,-0.73718 4.14814,-1.4711 0.28163,-0.73392 1.36391,-1.3344 2.40507,-1.3344 1.73255,0 2.37021,1.47727 1.99636,4.625 -0.0735,0.61875 1.06133,1.125 2.52181,1.125 1.46049,0 3.06466,0.73125 3.56482,1.625 0.50017,0.89375 1.51077,1.625 2.24577,1.625 0.735,0 2.11853,1.64828 3.0745,3.66285 0.95598,2.01456 2.86603,4.70814 4.24456,5.98572 2.38337,2.20884 2.47143,2.678 1.79365,9.5564 -1.13956,11.56475 -2.94348,12.86322 -8.8591,6.37685 -3.50721,-3.84563 -6.68933,-4.2953 -6.68933,-0.94529 0,1.2999 0.34329,2.36346 0.76287,2.36346 0.41958,0 1.20708,1.00451 1.75,2.23225 0.54292,1.22773 2.11213,2.7961 3.48713,3.48526 1.375,0.68915 2.13932,1.25964 1.69848,1.26775 -1.5533,0.0286 4.61479,5.01474 6.20343,5.01474 1.51972,0 3.09099,-2.66101 4.5762,-7.75 0.36117,-1.2375 1.30134,-2.25 2.08928,-2.25 0.78793,0 1.35994,-0.3375 1.27113,-0.75 -0.0888,-0.4125 0.36118,-2.01679 1,-3.5651 2.11219,-5.11935 1.4669,-10.87596 -1.58852,-14.17109 -1.5125,-1.63116 -2.78771,-3.20156 -2.83379,-3.48978 -0.0461,-0.28822 -0.60859,-1.79082 -1.25,-3.33913 -0.64142,-1.5483 -1.16621,-3.2358 -1.16621,-3.75 0,-0.51419 -0.45,-0.9349 -1,-0.9349 -0.55,0 -0.99998,-0.7875 -0.99996,-1.75 3e-5,-0.9625 -1.68747,-3.17748 -3.75,-4.92217 -2.8444,-2.40608 -3.47247,-3.45645 -2.6007,-4.34933 0.66196,-0.678 2.07207,-0.88431 3.32536,-0.48653 1.19681,0.37985 1.96434,0.90233 1.70561,1.16105 -0.25873,0.25873 0.60736,1.63335 1.92464,3.05472 1.31728,1.42137 2.39505,3.1936 2.39505,3.93828 0,0.74469 0.85122,1.35398 1.89159,1.35398 1.20504,0 2.12938,0.94743 2.54675,2.61035 1.36927,5.45559 4.78456,11.38965 6.55521,11.38965 4.26675,0 2.71669,-8.93222 -2.47833,-14.28136 -1.93337,-1.99073 -3.51522,-3.87071 -3.51522,-4.17773 0,-0.30703 -1.35,-2.42185 -3,-4.69961 -1.65,-2.27776 -3,-4.54431 -3,-5.03679 0,-0.49248 -1.125,-2.02042 -2.5,-3.39542 -3.1431,-3.1431 -3.16658,-4.40909 -0.0818,-4.40909 3.27455,0 5.69125,1.01387 5.01703,2.10479 -0.3043,0.49236 0.0965,0.89521 0.89073,0.89521 1.69343,0 4.30752,3.69153 5.23724,7.39584 0.35949,1.43229 1.08138,2.60416 1.60422,2.60416 0.52283,0 0.67249,0.45 0.33257,1 -0.33992,0.55 -0.14148,1 0.44098,1 0.58246,0 1.05902,0.675 1.05902,1.5 0,0.825 0.45,1.5 1,1.5 0.55,0 1,0.62686 1,1.39301 0,0.76616 0.67145,1.65067 1.49211,1.96559 2.01352,0.77266 4.45486,-4.1152 5.20066,-10.41236 0.49436,-4.17411 0.9153,-4.94863 2.69652,-4.96155 1.72926,-0.0126 1.83963,-0.1905 0.61071,-0.98469 -1.07268,-0.69322 0.0125,-0.97374 3.80902,-0.98469 3.28815,-0.01 5.07376,0.36534 4.69098,0.98469 -0.33992,0.55 0.0775,1 0.92756,1 0.85008,0 2.26376,1.6875 3.14152,3.75 1.25702,2.95367 1.36605,4.40214 0.51342,6.821 -0.59537,1.68905 -1.0847,3.93905 -1.08738,5 -0.003,1.06095 -1.59794,5.03334 -3.545,8.82754 -3.02684,5.89833 -4.69915,11.44707 -7.05607,23.41209 -0.95942,4.87055 -7.10062,11.80096 -7.47832,8.43937 -0.0464,-0.4125 -0.23356,-2.72114 -0.41602,-5.13031 -0.18247,-2.40917 -0.99438,-5.04293 -1.80425,-5.85281 -1.29666,-1.29665 -1.60145,-1.07212 -2.55234,1.88032 -0.59391,1.84404 -1.15323,7.5153 -1.24292,12.6028 -0.0897,5.0875 -0.55394,9.25 -1.03164,9.25 -0.47771,0 -0.79282,0.3375 -0.70024,0.75 0.0926,0.4125 -0.12436,2.325 -0.48207,4.25 -0.3577,1.925 -0.8372,4.91818 -1.06555,6.6515 -0.22835,1.73333 -1.44605,4.54583 -2.706,6.25 -1.82881,2.47361 -3.02195,3.0985 -5.91611,3.0985 -3.22331,0 -3.77944,-0.39285 -5.01542,-3.54289 -2.00412,-5.10774 -4.9869,-4.4194 -6.68583,1.54289 -1.53942,5.40247 -7.22603,11.00426 -11.15776,10.99131 -5.20362,-0.0171 -13.08021,-1.27835 -12.62127,-2.02094 0.25733,-0.41636 -0.54152,-1.0198 -1.77522,-1.34097 -2.64261,-0.68796 -9.89633,-7.14282 -9.01605,-8.02311 0.33346,-0.33346 -0.56441,-0.60629 -1.99527,-0.60629 -1.43087,0 -3.75196,-0.43738 -5.15799,-0.97195 -3.84124,-1.46043 -5.46818,-0.31394 -8.31283,5.85803 -5.18975,11.26005 -6.14318,20.24303 -3.31185,31.20329 1.19498,4.62585 2.33174,9.13214 2.52614,10.01398 0.32735,1.48501 5.3925,11.96577 10.34059,21.39665 1.15427,2.2 2.63067,6.25 3.28088,9 0.65022,2.75 1.74822,6.35 2.44001,8 1.26449,3.01596 3.49951,10.02723 7.33184,23 1.13735,3.85 2.47449,9.475 2.97143,12.5 0.49695,3.025 1.39482,7.525 1.99529,10 4.01574,16.55214 4.44119,28.75384 2.20121,63.12953 -1.33534,20.49273 -1.33016,20.6493 0.78009,23.61287 1.16838,1.64085 1.83763,3.27006 1.48721,3.62048 -0.35042,0.35042 -0.0892,0.63712 0.58057,0.63712 1.61749,0 4.11564,6.13173 4.11564,10.10186 0,4.74367 2.04742,10.65727 4.66926,13.48627 1.2819,1.3832 2.33074,2.94173 2.33074,3.46339 0,0.52166 0.41968,0.94848 0.93261,0.94848 0.51294,0 1.23236,0.94442 1.59872,2.09872 0.36636,1.1543 1.53966,2.97227 2.60732,4.03993 2.39635,2.39635 3.86135,6.10595 3.86135,9.77751 0,2.75127 3.37662,9.99527 7.08967,15.20977 1.05068,1.47554 1.91033,3.01174 1.91033,3.41377 0,0.40203 1.06451,1.71751 2.36557,2.9233 2.51518,2.33099 3.66457,5.40271 5.6266,15.037 0.67204,3.3 1.65394,7.17861 2.18198,8.61914 1.29292,3.52714 3.70115,14.02748 4.90366,21.38086 0.53965,3.3 1.45038,8.10196 2.02386,10.67103 0.95674,4.28603 0.56231,21.38486 -0.68082,29.51386 -0.26788,1.75169 -1.70965,4.64266 -3.20395,6.42438 -5.259,6.27055 -11.00914,11.89073 -12.1657,11.89073 -0.64308,0 -0.91576,0.41012 -0.60597,0.91138 0.3098,0.50127 -1.29759,1.22578 -3.57197,1.61003 -2.90977,0.4916 -3.72598,0.95785 -2.75425,1.57331 0.96079,0.60852 0.42935,0.87931 -1.74657,0.88997 -1.72015,0.008 -3.68775,-0.65969 -4.37244,-1.48469 -0.68469,-0.825 -2.11635,-1.5 -3.18146,-1.5 -1.06512,0 -1.69232,-0.39521 -1.39379,-0.87825 0.29853,-0.48303 -0.82973,-1.15275 -2.50726,-1.48825 -1.67752,-0.33551 -2.79129,-1.02868 -2.47504,-1.54038 0.31625,-0.51171 -0.78285,-1.22861 -2.44245,-1.59312 -1.6596,-0.36451 -2.76197,-1.07613 -2.44971,-1.58137 0.31226,-0.50525 -0.13381,-0.91863 -0.99127,-0.91863 -0.85746,0 -1.55902,-0.46264 -1.55902,-1.02809 0,-0.56546 -3.39372,-4.49975 -7.54161,-8.74287 -4.14788,-4.24312 -8.93111,-10.17684 -10.62939,-13.18603 -1.69829,-3.0092 -7.06325,-9.39408 -11.92215,-14.18862 -4.85889,-4.79454 -9.12445,-9.87318 -9.47901,-11.28587 -0.35456,-1.41269 -1.03829,-2.56852 -1.5194,-2.56852 -0.48111,0 -2.01491,-2.25 -3.40844,-5 -1.39353,-2.75 -2.93931,-5 -3.43506,-5 -2.93511,0 -4.23435,2.04518 -7.04362,11.08764 -2.00764,6.46214 -3.57476,9.91236 -4.50229,9.91236 -1.46499,0 -8.51903,6.69549 -8.51903,8.08601 0,0.42857 -0.97791,1.08959 -2.17313,1.46894 -2.6072,0.82749 -4.65622,2.76227 -7.88464,7.44505 -4.54432,6.59148 -12.43816,13.99663 -14.99883,14.07029 -2.25956,0.065 -2.29292,0.13494 -0.4434,0.92971 1.87993,0.80784 1.85954,0.86365 -0.33971,0.92971 -2.30013,0.0691 -6.06177,3.53567 -6.12702,5.64642 -0.0183,0.59188 -1.65378,2.39188 -3.6344,4 -1.98063,1.60813 -4.13911,3.427 -4.79664,4.04194 -0.65753,0.61494 -2.20665,1.43899 -3.44249,1.83123 -2.73614,0.86842 -17.31949,-0.38179 -16.67211,-1.42928 0.25406,-0.41108 -1.85532,-1.02186 -4.6875,-1.35729 -2.83219,-0.33543 -5.40937,-1.03046 -5.72707,-1.54452 -0.3177,-0.51405 -2.30863,-1.25938 -4.42427,-1.65627 -2.67724,-0.50226 -3.43655,-0.98151 -2.49771,-1.57648 1.00723,-0.6383 0.84089,-0.85871 -0.65668,-0.87015 -1.10308,-0.008 -3.31882,-1.59031 -4.92387,-3.51531 -1.60504,-1.925 -3.54158,-3.5 -4.30341,-3.5 -0.76184,0 -1.10704,-0.45 -0.76712,-1 0.33992,-0.55 -0.27172,-1 -1.3592,-1 -2.80346,0 -5.21985,-1.06308 -4.62054,-2.03279 0.27983,-0.45277 -0.39775,-1.11094 -1.50574,-1.4626 -1.10799,-0.35166 -2.01452,-1.05906 -2.01452,-1.572 0,-1.6989 -2.96546,-0.96715 -5.22092,1.28831 -1.88946,1.88946 -2.3155,3.71772 -2.85459,12.25 -0.34851,5.516 -1.22311,12.09433 -1.94354,14.61852 -1.37628,4.82212 -1.19621,7.55573 2.59607,39.41056 0.8512,7.15 1.92702,19.525 2.39072,27.5 0.4637,7.975 1.31838,16.525 1.8993,19 0.58091,2.475 1.7429,8.55 2.58218,13.5 0.83929,4.95 2.2039,12.05785 3.03248,15.79522 1.14198,5.15102 1.26162,7.88795 0.49443,11.31128 -0.55663,2.48383 -0.97408,10.67598 -0.92765,18.20478 0.0612,9.92643 -0.36253,15.20037 -1.54174,19.18872 -2.4412,8.25675 -9.01288,21.15267 -12.46433,24.45937 -2.83428,2.71541 -3.68039,2.94576 -11.79783,3.2119 -4.80952,0.15768 -9.30988,0.0327 -10.00081,-0.2777 z m 16.50327,-9.64357 c 2.81959,-3.55317 8.48699,-21.85354 9.3506,-30.19365 0.50936,-4.919 1.59576,-9.96567 2.41423,-11.21481 1.75077,-2.67201 1.9,-6.12805 0.4314,-9.99075 -0.5812,-1.52867 -1.90567,-7.08653 -2.94327,-12.35079 -2.29993,-11.66869 -3.25426,-14.28305 -6.48617,-17.76851 -2.44382,-2.63555 -2.51413,-3.11515 -2.52465,-17.22127 -0.008,-10.12944 -0.47154,-16.01977 -1.53681,-19.51022 -0.86906,-2.84756 -1.27603,-6.5067 -0.94536,-8.5 0.31933,-1.925 -0.13479,-7.94062 -1.00916,-13.36803 -0.87438,-5.42742 -1.45659,-13.52742 -1.29381,-18 l 0.29596,-8.13197 -4.13209,0.25488 c -3.42815,0.21146 -4.22249,-0.0908 -4.66271,-1.7742 -0.69155,-2.64448 1.02708,-8.78463 3.38905,-12.10803 2.11285,-2.9729 4.12756,-10.09221 5.76528,-20.37265 4.83776,-30.36788 5.00471,-32.53786 2.65346,-34.48922 -2.11235,-1.75309 -5.90994,-0.5061 -7.49855,2.46224 -1.72258,3.21868 -3.38138,3.21182 -4.85392,-0.0201 -1.77531,-3.89637 -1.50455,-4.64908 3.3725,-9.37555 6.90657,-6.69334 13.37138,-16.61905 16.63198,-25.53585 1.61731,-4.42285 3.90726,-10.51655 5.08878,-13.54155 2.9428,-7.5343 2.47179,-17 -0.84592,-17 -0.80155,0 -1.85301,1.0125 -2.33658,2.25 -1.24984,3.19846 -4.84848,6.74731 -6.86024,6.76531 -1.47028,0.0132 -1.49998,0.15171 -0.21104,0.98469 1.22674,0.79278 1.11222,0.97216 -0.62868,0.98469 -1.40302,0.0101 -2.54215,1.01351 -3.34156,2.94345 -0.66708,1.61048 -1.8752,3.18231 -2.6847,3.49294 -0.8095,0.31064 -1.22355,0.96652 -0.9201,1.45751 0.62777,1.01575 -3.04455,1.88075 -5.67496,1.33671 -3.34304,-0.69143 -1.70952,-4.04164 5.5,-11.28007 8.22352,-8.25645 10.10843,-9.9352 11.15532,-9.9352 0.40564,0 1.32526,-0.5625 2.04358,-1.25 0.71832,-0.6875 2.33541,-1.925 3.59352,-2.75 6.11585,-4.01043 7.22986,-6.73856 4.40088,-10.77749 -1.67578,-2.39251 -4.43045,-2.83494 -7.48213,-1.20173 -1.04904,0.56143 -4.26623,1.46814 -7.14931,2.0149 -2.88308,0.54677 -7.05769,1.85831 -9.27691,2.91455 -2.21922,1.05624 -5.72245,2.22462 -7.78495,2.5964 -2.0625,0.37177 -3.75,1.07587 -3.75,1.56466 0,0.48879 -1.29502,0.88871 -2.87782,0.88871 -2.69414,0 -2.86514,-0.23936 -2.67916,-3.75 0.30089,-5.67981 1.30172,-7.03108 5.76631,-7.78537 2.85774,-0.48281 3.64547,-0.94258 2.67166,-1.55935 -0.98937,-0.62662 -0.6214,-0.879 1.29758,-0.88997 1.47322,-0.008 3.41179,-0.74853 4.30794,-1.64468 0.89615,-0.89615 3.7408,-1.8601 6.32143,-2.14212 2.58063,-0.28201 5.57969,-1.12379 6.66457,-1.87063 1.08487,-0.74683 2.73487,-1.35788 3.66666,-1.35788 0.93179,0 1.84416,-0.44382 2.0275,-0.98626 0.18333,-0.54245 2.57896,-1.29344 5.32362,-1.66886 2.74466,-0.37543 5.5893,-1.28161 6.32143,-2.01374 0.73212,-0.73213 2.00055,-1.33114 2.81873,-1.33114 0.81817,0 1.2321,-0.41338 0.91984,-0.91863 -0.31226,-0.50524 0.78618,-1.216 2.44098,-1.57945 1.6548,-0.36346 3.00873,-1.07508 3.00873,-1.58138 0,-0.50629 1.8,-0.92054 4,-0.92054 2.2,0 4,0.45 4,1 0,1.64868 2.94248,1.13149 5.12363,-0.90055 1.122,-1.04531 2.28161,-3.70184 2.5769,-5.9034 0.46094,-3.43655 0.16119,-4.33482 -2.11877,-6.34944 -1.46061,-1.29064 -5.00153,-3.31238 -7.86871,-4.49276 -7.18515,-2.95803 -7.53705,-5.35385 -0.78637,-5.35385 3.38382,0 5.07842,-0.41627 5.08863,-1.25 0.0115,-0.94172 0.22262,-0.92302 0.85588,0.0758 0.46231,0.7292 2.69613,1.57471 4.96404,1.8789 2.26791,0.30419 3.91236,0.89466 3.65433,1.31216 -0.25802,0.4175 1.54078,1.06049 3.99734,1.42887 2.45657,0.36839 4.70247,1.05164 4.99091,1.51833 0.28843,0.4667 2.88642,1.17789 5.77331,1.58044 4.02618,0.5614 4.78299,0.91627 3.24888,1.52339 -1.58869,0.62873 -1.2802,0.80877 1.5,0.87545 4.53707,0.10881 8.10328,1.0805 7.50693,2.04542 -0.25882,0.41877 1.34242,1.05132 3.55831,1.40565 2.21589,0.35434 3.78777,1.03438 3.49307,1.51121 -0.64762,1.04788 2.7937,2.06201 7.06052,2.0807 2.91721,0.0128 3.09491,-0.19174 2.74889,-3.16356 -0.41151,-3.53437 -1.71794,-5.74745 -6.27776,-10.63451 -1.69948,-1.82141 -3.08996,-3.73391 -3.08996,-4.24997 0,-0.51605 -0.675,-0.93828 -1.5,-0.93828 -0.825,0 -1.5,-0.41968 -1.5,-0.93261 0,-0.51294 -0.99151,-1.24731 -2.20336,-1.63193 -1.21185,-0.38463 -2.81899,-1.31495 -3.57143,-2.06739 -0.75244,-0.75244 -2.03748,-1.36807 -2.85566,-1.36807 -0.81817,0 -1.20947,-0.45 -0.86955,-1 0.33992,-0.55 0.13034,-1 -0.46573,-1 -1.55801,0 -3.32737,-5.1069 -2.17027,-6.264 1.17329,-1.17329 7.36108,0.0908 6.58571,1.34537 -0.31226,0.50525 -0.1258,0.91863 0.41435,0.91863 0.54015,0 2.33209,1.35 3.98209,3 2.92718,2.92717 4.89133,4.00229 3.65385,2 -0.35191,-0.5694 0.50929,-1 2,-1 1.43992,0 2.36959,0.402 2.06593,0.89333 -0.30366,0.49133 0.58819,1.17952 1.98188,1.52931 1.39369,0.3498 2.28405,1.0404 1.97857,1.53468 -0.30548,0.49428 0.23861,1.15451 1.2091,1.46719 0.97049,0.31267 3.30537,2.98156 5.18863,5.93087 1.88326,2.94931 4.66894,6.19902 6.1904,7.22158 1.52146,1.02257 2.99037,2.54857 3.26424,3.39113 0.50476,1.55284 3.70435,7.11438 4.62125,8.03267 0.275,0.27541 1.34581,2.07541 2.37959,4 1.03377,1.92458 2.91258,5.4154 4.17513,7.75737 1.26255,2.34197 2.84542,5.92427 3.51749,7.96066 0.67207,2.03639 2.28076,5.81059 3.57487,8.3871 1.2941,2.57651 2.35292,5.14421 2.35292,5.706 0,0.5618 0.44936,1.17144 0.99859,1.35478 0.54922,0.18333 2.13785,3.47446 3.53028,7.31361 1.39243,3.83915 2.96806,7.41665 3.50141,7.95 0.53335,0.53335 0.96972,3.56768 0.96972,6.74297 0,5.58765 3.23986,14.82675 5.19927,14.82675 0.4404,0 0.80073,0.44486 0.80073,0.98857 0,0.99501 2.01056,3.73769 5.25,7.16171 0.9625,1.01735 1.50338,1.84972 1.20196,1.84972 -0.73537,0 5.62925,9.30856 6.98204,10.21158 3.78644,2.52752 5.08073,3.94364 8.75094,9.57472 2.2535,3.45746 4.54349,6.13756 5.08886,5.95577 0.54537,-0.18179 1.14587,-2.78362 1.33444,-5.78184 0.21229,-3.37523 0.91751,-5.8715 1.85177,-6.55464 0.82989,-0.60684 1.2159,-1.39635 0.85778,-1.75447 -0.35812,-0.35811 -0.19498,-0.65112 0.36253,-0.65112 0.55751,0 2.05137,-0.9 3.31968,-2 1.26831,-1.1 3.38872,-2 4.71203,-2 1.34936,0 2.13458,-0.43917 1.78797,-1 -0.88687,-1.43498 4.84705,-1.25295 6.3,0.2 1.88366,1.88366 1.43343,3.63922 -1.72516,6.72684 -4.40815,4.30911 -7.07484,10.28965 -7.07484,15.86666 0,2.68024 0.3375,5.21067 0.75,5.62317 0.4125,0.4125 0.77183,1.05 0.79852,1.41666 0.0267,0.36667 1.48919,3.46634 3.25,6.88815 1.76081,3.42182 3.20148,6.84629 3.20148,7.60993 0,0.76364 1.16154,2.23898 2.58119,3.27852 1.41966,1.03954 3.51351,2.67757 4.65301,3.64007 4.60481,3.88954 16.69264,0.88312 18.13847,-4.5113 0.33001,-1.23129 0.60617,-5.70239 0.61368,-9.93579 0.0112,-6.30657 -0.43799,-8.54649 -2.48635,-12.39893 -1.375,-2.58602 -2.5,-5.26854 -2.5,-5.96114 0,-0.69261 -2.01929,-3.33698 -4.4873,-5.87638 -6.03307,-6.20758 -7.26536,-11.56646 -2.65974,-11.56646 1.82991,0 9.14704,7.0871 9.14704,8.85948 0,1.38573 4.45835,6.14052 5.75768,6.14052 0.56559,0 1.29708,-0.70033 1.62554,-1.55628 0.70163,-1.82842 -1.95964,-18.81356 -3.51654,-22.44372 -0.5897,-1.375 -1.2475,-3.44491 -1.46176,-4.5998 -0.21426,-1.15488 -2.56525,-5.42988 -5.22443,-9.5 -5.528,-8.46111 -7.44025,-12.9195 -9.17877,-21.4002 -1.6561,-8.07865 -3.52104,-11.3957 -7.31814,-13.01632 -6.33924,-2.70563 -11.64052,-12.5307 -11.66903,-21.62669 -0.0164,-5.22473 -1.15493,-6.17891 -6.17486,-5.17493 l -3.13844,0.62769 0.69692,-5.25368 c 0.82258,-6.20089 -1.4204,-14.53742 -4.66999,-17.35702 -2.05397,-1.78219 -5.44129,-8.91149 -8.44986,-17.78443 -2.21442,-6.53081 -1.08917,-12.75486 3.24352,-17.94076 1.87389,-2.2429 3.76057,-5.74207 4.19262,-7.77593 0.43204,-2.03386 0.65863,-11.28564 0.50352,-20.55951 -0.22282,-13.32207 -0.62808,-17.52038 -1.93062,-20 -1.17676,-2.24018 -1.84312,-7.1453 -2.32823,-17.13842 -0.6408,-13.20003 -0.91819,-14.62855 -4.85444,-25 -2.29614,-6.05 -4.60706,-11.9 -5.13538,-13 -1.56369,-3.25574 -4.96931,-14.6125 -4.96931,-16.57125 0,-0.9959 -0.41717,-2.06854 -0.92704,-2.38366 -0.50988,-0.31512 -1.46847,-2.25418 -2.13021,-4.30902 -1.10162,-3.42073 -4.64285,-9.92182 -10.56892,-19.40267 -4.57122,-7.31331 -10.86253,-25.76558 -12.68595,-37.20766 -0.65087,-4.08426 1.07302,-9.62574 2.99445,-9.62574 0.87358,0 2.63094,1.125 3.90525,2.5 2.20592,2.38023 6.21254,3.60365 4.91242,1.5 -0.37268,-0.60301 0.96994,-1 3.38197,-1 4.41165,0 4.99973,-0.55587 6.20797,-5.86795 1.28188,-5.63584 -0.56569,-10.28584 -5.13076,-12.91316 -2.12048,-1.22039 -4.55376,-2.21889 -5.4073,-2.21889 -0.85353,0 -1.55188,-0.37064 -1.55188,-0.82363 0,-0.453 -1.6875,-1.25788 -3.75,-1.78862 -2.0625,-0.53074 -3.6375,-1.5101 -3.5,-2.17636 0.1375,-0.66627 -0.425,-1.21139 -1.25,-1.21139 -0.825,0 -1.5,-0.45 -1.5,-1 0,-0.55 -1.4625,-1.06742 -3.25,-1.14983 -3.02493,-0.13946 -3.05956,-0.17868 -0.5,-0.56642 3.32213,-0.50327 3.6062,-1.98017 0.5,-2.59957 -1.2375,-0.24677 0.14358,-0.30596 3.06907,-0.13155 2.92548,0.17442 5.85048,0.73718 6.5,1.25059 0.64951,0.5134 2.74201,0.96541 4.64999,1.00447 1.91855,0.0393 3.97912,0.76854 4.61025,1.63166 0.66499,0.90942 2.63016,1.56065 4.7095,1.56065 1.96258,0 4.24333,0.675 5.06833,1.5 1.60943,1.60943 11.64286,2.16615 11.64286,0.64602 0,-0.46968 1.16325,-2.10914 2.585,-3.64324 4.32861,-4.67064 4.18013,-8.84294 -0.3552,-9.98124 -2.06631,-0.51861 -2.31712,-0.85404 -1.17765,-1.57494 1.02768,-0.65015 0.35958,-0.92042 -2.30215,-0.93129 -2.0625,-0.008 -3.75,0.43469 -3.75,0.98469 0,0.55 -0.9,1 -2,1 -1.1,0 -2,-0.42961 -2,-0.95469 0,-0.52507 -1.6875,-1.24633 -3.75,-1.60278 -6.32313,-1.09281 -14.25,-3.53944 -14.25,-4.39827 0,-0.4476 -2.54745,-1.1321 -5.661,-1.52111 -3.11355,-0.38901 -6.37605,-1.10634 -7.25,-1.59406 -3.15507,-1.76074 -13.90622,-5.69687 -19.19,-7.0257 -2.96945,-0.74679 -5.99364,-1.93056 -6.72043,-2.6306 -0.72678,-0.70003 -2.18928,-1.27279 -3.25,-1.27279 -1.06071,0 -1.92857,-0.40598 -1.92857,-0.90217 0,-1.59514 -5.90695,-3.0837 -8.43009,-2.12441 -2.54441,0.96738 -6.84684,0.28369 -6.07489,-0.96536 0.52013,-0.84159 -4.29355,-2.00806 -8.28669,-2.00806 -1.39791,0 -2.27916,-0.2625 -1.95833,-0.58333 1.37239,-1.37239 -3.42838,-4.4178 -7,-4.44053 -2.0625,-0.0131 -5.325,-0.44504 -7.25,-0.95982 -1.925,-0.51479 -5.6375,-1.47987 -8.25,-2.14462 -2.6125,-0.66476 -4.75,-1.58284 -4.75,-2.04018 0,-1.52498 -3.97618,-0.856 -5.75,0.96742 -3.09899,3.18566 -7.35822,13.00016 -7.55694,17.41342 -0.17992,3.99592 -0.005,4.30928 2.57389,4.6057 1.52183,0.17493 2.50564,0.74088 2.18625,1.25767 -0.78653,1.27262 1.97309,3.90069 4.22537,4.02395 1.24807,0.0683 1.03447,0.31858 -0.67857,0.79508 -1.375,0.38248 -2.275,0.9761 -2,1.31916 0.275,0.34306 -0.69411,1.67277 -2.15359,2.95491 -2.87331,2.5242 -5.84641,10.09502 -5.84641,14.88756 0,1.64257 -1.09646,4.66434 -2.43657,6.71505 -1.34012,2.05071 -3.1952,7.10356 -4.12241,11.22856 -0.9272,4.125 -2.30574,8.91801 -3.06342,10.65113 -0.79826,1.82594 -1.3776,6.56542 -1.3776,11.26987 0,8.38914 -2.86903,18.09089 -6.3916,21.61346 -0.84141,0.84141 -1.80467,3.20287 -2.14058,5.24769 -0.33591,2.04482 -2.60359,9.95617 -5.03928,17.58079 -2.4357,7.62462 -4.42854,14.53015 -4.42854,15.34563 0,0.81548 -0.83308,2.67716 -1.8513,4.13706 -1.01822,1.4599 -2.68261,4.90437 -3.69866,7.65437 -1.01605,2.75 -2.15143,5.225 -2.52307,5.5 -0.37164,0.275 -1.0092,2.075 -1.41681,4 -0.40761,1.925 -1.22119,4.09497 -1.80796,4.82215 -1.70746,2.11606 -5.66394,12.08713 -7.80809,19.67785 -1.08751,3.85 -2.78866,8.125 -3.78035,9.5 -2.11242,2.92892 -6.47281,18.48142 -7.99044,28.5 -0.5832,3.85 -1.77317,9.925 -2.64437,13.5 -0.8712,3.575 -2.0155,8.525 -2.54288,11 -0.52739,2.475 -2.07875,7.96694 -3.44748,12.20431 -1.368715,4.23737 -2.488585,8.42456 -2.488585,9.30486 0,0.88031 -0.83755,3.48837 -1.86122,5.79569 -1.02367,2.30733 -3.08426,7.57014 -4.57909,11.69514 -1.49483,4.125 -3.35729,8.77397 -4.13878,10.33104 -0.7815,1.55707 -1.43503,3.58207 -1.45229,4.5 -0.0173,0.91793 -1.36726,4.3575 -3,7.6435 -1.83518,3.6934 -2.96862,7.53765 -2.96862,10.0685 0,4.28911 2.66178,14.59744 3.99125,15.45696 1.73465,1.12149 4.14623,10.9155 5.05853,20.54398 0.53362,5.63187 1.43174,12.42591 1.99582,15.09789 0.56407,2.67197 1.12207,5.53313 1.23999,6.35813 0.11793,0.825 0.58516,1.77211 1.03829,2.10468 0.45314,0.33257 1.32412,5.11208 1.93551,10.62113 1.03044,9.2849 0.94423,10.65012 -1.18042,18.69277 -1.26062,4.77197 -2.07801,10.11746 -1.81641,11.87887 0.2616,1.7614 -0.0389,14.67755 -0.66778,28.70255 -0.62887,14.025 -0.90747,30.93267 -0.6191,37.5726 0.65604,15.10543 1.22922,15.9274 11.106545,15.9274 6.08135,0 6.97299,0.26799 9.32119,2.80152 2.90801,3.13753 3.30472,5.21276 1.15424,6.03798 -1.86071,0.71402 -8.44481,-0.34788 -9.14096,-1.47428 -1.12995,-1.82829 -5.395405,-0.82735 -7.016305,1.64646 -2.13516,3.25866 -1.31726,7.3844 2.70718,13.65595 3.579515,5.57821 6.847915,17.13502 6.881445,24.33237 0.0128,2.75 0.69553,6.28894 1.51714,7.86431 0.82161,1.57537 1.49384,4.2059 1.49384,5.84563 0,1.63972 1.01075,4.40079 2.24611,6.13569 1.23536,1.7349 2.12073,3.37937 1.96748,3.65437 -0.15325,0.275 0.74356,1.7375 1.99291,3.25 1.89723,2.29685 3.05607,2.75 7.03252,2.75 2.61854,0 4.76098,-0.45 4.76098,-1 0,-1.5982 4.98833,-1.15452 6.74255,0.5997 1.46627,1.46626 1.46556,1.82076 -0.008,4.25 -0.88686,1.46163 -2.51407,2.6503 -3.62807,2.6503 -2.79606,0 -5.03636,3.32326 -5.07426,7.52714 -0.0362,4.01418 4.17852,9.46529 8.12248,10.50522 1.68401,0.44404 3.31483,2.64238 5.78121,7.79308 1.88953,3.94601 4.23356,8.08391 5.20896,9.19533 1.65616,1.8871 1.67585,2.58161 0.29771,10.5 -1.94047,11.14929 -2.24739,11.97923 -4.43011,11.97923 -2.03929,0 -2.48891,-1.49996 -3.58014,-11.94382 -0.71656,-6.85794 -4.26711,-16.2708 -5.93193,-15.72614 -2.77135,0.90669 -0.93556,22.85706 2.27351,27.18397 0.94957,1.28035 3.20149,2.61121 5.00428,2.95747 1.80278,0.34627 3.08019,0.9493 2.83867,1.34007 -0.69624,1.12656 1.7424,3.9067 3.90847,4.45578 3.53215,0.89538 5.21189,0.75572 6.22211,-0.51733 z M 311.04415,634.40236 c -1.18606,-1.18605 -0.71202,-2.18416 1.34785,-2.83794 1.10799,-0.35166 1.79526,-0.99416 1.52727,-1.42778 -0.45082,-0.72944 8.67798,-2.06761 14.1049,-2.06761 2.89964,0 3.18768,2.93493 0.52457,5.34501 -1.3597,1.23051 -3.75356,1.65499 -9.33333,1.65499 -4.12753,0 -7.8046,-0.3 -8.17126,-0.66667 z m -33.2355,-83.08333 c 0.087,-0.9625 0.73452,-4.45 1.43903,-7.75 3.08225,-14.43769 5.47514,-19.5 9.2174,-19.5 2.31596,0 3.05556,2.61114 2.01642,7.11884 -0.88297,3.83026 -5.4458,12.20604 -6.22496,11.42689 -0.25309,-0.25309 -0.56538,0.92065 -0.69397,2.60831 -0.1286,1.68767 -0.65702,3.85925 -1.17427,4.82574 -0.51725,0.96649 -0.65629,2.04142 -0.30897,2.38874 0.34732,0.34731 -0.50708,0.63148 -1.89865,0.63148 -1.80321,0 -2.4847,-0.50278 -2.37203,-1.75 z M 247.19464,298.31284 c 0.90841,-0.65164 -0.62966,-1.14834 -4.95622,-1.60056 -3.45036,-0.36063 -6.72058,-1.10289 -7.26716,-1.64947 -1.29641,-1.29641 -7.59378,-1.29125 -7.59378,0.006 0,0.55 -0.70156,1 -1.55902,1 -0.85746,0 -1.2809,-0.45 -0.94098,-1 0.33992,-0.55 -0.0677,-1 -0.9058,-1 -0.83811,0 -2.0055,-0.9 -2.5942,-2 -0.5887,-1.1 -1.72953,-2 -2.53518,-2 -0.80565,0 -1.50035,-0.5625 -1.54377,-1.25 -0.0632,-1 -0.17982,-1 -0.58333,0 -0.27741,0.6875 -1.70439,1.24311 -3.17105,1.23469 -1.8495,-0.0106 -2.25633,-0.2754 -1.32762,-0.86405 0.82674,-0.52402 -2.11596,-1.11902 -7.69157,-1.55519 -7.56258,-0.59161 -8.93423,-0.95759 -8.43777,-2.25135 0.47097,-1.22733 0.0992,-1.40493 -1.80844,-0.86399 -1.78819,0.50706 -2.02546,0.4226 -0.9293,-0.33081 1.29597,-0.89074 1.29597,-1.07332 0,-1.52697 -0.80958,-0.28339 -3.04697,-0.68558 -4.97197,-0.89376 -1.925,-0.20817 -0.30539,-0.45051 3.59912,-0.53853 9.70961,-0.21889 22.45667,0.94067 21.81176,1.98415 -0.2909,0.4707 1.41014,0.89161 3.7801,0.93535 8.9615,0.16543 14.97072,0.80846 16.11961,1.72491 0.65418,0.52182 3.77691,1.26167 6.93941,1.64411 3.1625,0.38245 5.75,1.11297 5.75,1.6234 0,0.51042 0.68912,0.92804 1.53138,0.92804 0.84227,0 1.78363,0.65733 2.09193,1.46074 0.35917,0.936 2.70578,1.70345 6.53225,2.13637 5.90446,0.66801 6.69152,1.81248 1.84444,2.68203 -1.8213,0.32674 -1.48195,0.48547 1.25,0.58468 5.9323,0.21543 4.35879,2.13618 -1.75,2.13618 -3.35438,0 -5.5,-0.43185 -5.5,-1.10699 0,-0.65539 -0.71392,-0.82023 -1.75,-0.40406 -3.80598,1.52874 -4.8236,1.75251 -3.43284,0.75486 z m -47.62966,-13.92692 c -0.72188,-0.28887 -1.58438,-0.25335 -1.91667,0.0789 -0.33229,0.33229 0.25834,0.56864 1.3125,0.52522 1.16495,-0.048 1.4019,-0.28494 0.60417,-0.60416 z m 20.8125,429.81167 c 0,-0.4793 2.35618,-3.2918 5.23595,-6.25 2.87977,-2.95821 5.13891,-5.68864 5.02031,-6.06762 -0.1186,-0.37898 0.68176,-0.97388 1.77857,-1.322 1.09682,-0.34811 1.73612,-1.05053 1.42067,-1.56094 -0.31544,-0.5104 0.096,-0.928 0.91428,-0.928 1.77428,0 8.63022,-6.25049 8.63022,-7.86808 0,-0.62255 0.4087,-1.13192 0.90822,-1.13192 1.85501,0 14.27235,-13.4861 13.30658,-14.45187 -0.30148,-0.30147 0.16516,-0.54813 1.03697,-0.54813 0.87181,0 2.56589,-1.58694 3.76462,-3.52652 1.19873,-1.93959 2.79691,-4.14392 3.5515,-4.89851 2.51359,-2.51359 8.27038,-16.01921 8.55698,-20.07497 1.04184,-14.74327 -6.43917,-38.93157 -14.99324,-48.47757 -3.78199,-4.22056 -4.10654,-4.37382 -6.52321,-3.08046 -6.75172,3.61342 -10.19902,15.05793 -9.25569,30.72745 0.32551,5.40682 0.88458,11.56986 1.24239,13.69564 0.46435,2.75878 0.25761,4.11398 -0.72228,4.73469 -2.08582,1.32126 -2.69732,1.11885 -5.12945,-1.69794 -1.23387,-1.42901 -3.46082,-3.47036 -4.94878,-4.53634 -3.05179,-2.18628 -4.87366,-1.58273 -9.6997,3.21332 -1.4272,1.41834 -3.38241,2.86672 -4.34491,3.21862 -2.99919,1.09654 -2.32717,7.66433 1.11681,10.91489 3.40049,3.20952 4.13319,6.27044 4.13319,17.26668 0,7.31571 0.26818,8.51835 2.41648,10.83639 2.32364,2.50725 2.49727,4.3113 0.83585,8.68463 -0.31342,0.825 -0.49841,1.8375 -0.41109,2.25 0.0873,0.4125 -0.9928,0.75 -2.40026,0.75 -1.45136,0 -2.2915,-0.43284 -1.94098,-1 0.33992,-0.55 -0.009,-1 -0.77617,-1 -0.76681,0 -3.31569,3.77231 -5.66419,8.38291 -3.43899,6.75149 -4.13675,8.98953 -3.58536,11.5 0.57581,2.62164 1.14884,3.11709 3.60518,3.11709 1.60629,0 2.92054,-0.39215 2.92054,-0.87144 z m -9.54225,-2.0602 c 0.95817,-1.55035 -0.65132,-12.06893 -1.84543,-12.06056 -1.58979,0.0112 -3.61232,4.83088 -3.61232,8.60823 0,3.03497 0.9321,4.12214 3.69098,4.30502 0.65504,0.0434 1.45009,-0.34029 1.76677,-0.85269 z m -8.56024,-10.12062 c 0.65053,-2.17126 1.56593,-3.94774 2.03422,-3.94774 0.4683,0 1.16027,-1.23043 1.53771,-2.73428 0.37745,-1.50385 1.82823,-5.21635 3.22397,-8.25 3.61556,-7.85845 5.83731,-29.05348 3.44154,-32.83161 -1.115,-1.75835 -4.13495,9.01228 -4.13495,14.74728 0,3.65777 -0.87063,7.31865 -3.82141,16.06861 -0.27822,0.825 -0.54472,1.8 -0.59222,2.16667 -0.0475,0.36666 -0.42387,1.00416 -0.83637,1.41666 -0.4125,0.4125 -0.75,1.71515 -0.75,2.89478 0,1.17962 -0.87425,3.08316 -1.94277,4.23008 -1.81057,1.94342 -3.49367,9.52203 -2.3653,10.6504 1.2182,1.21821 3.11516,-0.77134 4.20558,-4.41085 z m -9.66146,0.80226 c 0.80516,-1.7875 2.05555,-4.825 2.77864,-6.75 0.72308,-1.925 1.92699,-4.22303 2.67534,-5.10673 1.68979,-1.99542 5.30997,-12.13218 5.30997,-14.86829 0,-1.48296 -0.65658,-2.02498 -2.453,-2.02498 -1.98276,0 -2.65263,0.71886 -3.49442,3.75 -0.57278,2.0625 -1.04394,4.48092 -1.047,5.37427 -0.0108,3.14015 -3.10935,10.37461 -5.52219,12.89307 -1.77459,1.85227 -2.40084,3.55854 -2.29912,6.26417 0.17397,4.62762 2.07911,4.8479 4.05178,0.46849 z m -8.73379,-4.56338 c -0.26848,-0.72236 -0.94131,-1.0333 -1.4952,-0.69099 -1.15861,0.71607 -1.3645,5.8136 -0.27866,6.89944 0.91161,0.91161 2.43651,-4.4255 1.77386,-6.20845 z m -9.331,-8.84161 c 1.93625,-1.75228 2.46853,-5.83156 0.88835,-6.80817 -1.42873,-0.883 -5.05961,3.5316 -5.05961,6.15172 0,2.71757 1.61322,2.97145 4.17126,0.65645 z m -7.17126,-2.34501 c 0,-0.55 -0.42344,-1 -0.94098,-1 -0.51754,0 -1.2191,0.45 -1.55902,1 -0.33992,0.55 0.0835,1 0.94098,1 0.85746,0 1.55902,-0.45 1.55902,-1 z m 202,-4.05902 c 0,-2.33979 -2.81001,-2.59966 -3.6771,-0.34006 -0.63132,1.6452 1.45445,3.65472 2.87935,2.77408 0.43876,-0.27117 0.79775,-1.36648 0.79775,-2.43402 z m -201.22931,-0.44098 c 0.24592,-2.97138 -1.27924,-3.2868 -2.73551,-0.56574 -1.41697,2.64765 -1.31514,3.06574 0.74671,3.06574 1.17885,0 1.85192,-0.84608 1.9888,-2.5 z m 49.60387,-1.68871 c 0.34803,-1.4788 0.23592,-2.93399 -0.24914,-3.23377 -0.77723,-0.48036 -2.12542,3.79966 -2.12542,6.74748 0,1.8658 1.70082,-0.65096 2.37456,-3.51371 z m -26.01293,-1.31129 c 0.31658,-0.825 0.13972,-1.5 -0.39301,-1.5 -0.53274,0 -0.96862,0.675 -0.96862,1.5 0,0.825 0.17686,1.5 0.39301,1.5 0.21616,0 0.65203,-0.675 0.96862,-1.5 z m -19.89035,-6.35089 c 0.5634,-2.92547 -0.3341,-5.14911 -2.07827,-5.14911 -2.1453,0 -1.67645,-2.43103 1.65726,-8.59292 3.58745,-6.6309 5.80642,-14.65338 6.26681,-22.65708 0.35142,-6.10936 -0.67022,-7.25763 -3.55891,-4 -2.73895,3.08876 -6.75817,17.83879 -6.75817,24.80162 0,3.8884 -0.42215,6.44838 -1.06336,6.44838 -0.5973,0 -0.92601,1.42444 -0.75,3.25 0.19615,2.03439 0.85772,3.25 1.76873,3.25 1.03439,0 1.43296,1.10973 1.3779,3.83639 -0.0662,3.27796 0.12516,3.63375 1.31463,2.44428 0.76566,-0.76566 1.58618,-2.39986 1.82338,-3.63156 z M 178.03342,671.8 c -0.27393,-0.67703 -0.48137,0.11903 -0.46099,1.76903 0.0204,1.65 0.2445,2.20394 0.49804,1.23097 0.25354,-0.97297 0.23687,-2.32297 -0.0371,-3 z m 13.50028,-9.1721 c 0.42585,-5.61222 0.35043,-7.55887 -0.29287,-7.55887 -0.72202,0 -1.34278,2.46628 -2.39115,9.5 -0.55877,3.74891 -0.49815,3.87815 0.9658,2.05887 0.8591,-1.06762 1.6323,-2.86762 1.71822,-4 z m 23.90418,-25.63769 c 1.29775,-1.69335 2.50545,-4.16835 2.68378,-5.5 0.26917,-2.00994 -0.1062,-2.42118 -2.20997,-2.42118 -3.51133,0 -5.98237,2.81625 -6.3647,7.25387 -0.27086,3.14385 -0.0129,3.74613 1.60431,3.74613 1.05987,0 2.98884,-1.38547 4.28658,-3.07882 z m -1.60703,-13.67118 c 5.73911,-4.26572 7.08681,-6.00794 13.21865,-17.08822 3.75539,-6.78602 7.88738,-13.49732 9.18221,-14.91399 1.80093,-1.9704 2.23099,-3.3352 1.82986,-5.80708 -0.57847,-3.56472 -3.40507,-7.44071 -5.4262,-7.44071 -1.56881,0 -8.46193,4.24632 -13.23573,8.15351 -1.91282,1.56557 -4.02881,2.84649 -4.7022,2.84649 -0.6734,0 -4.26599,2.7 -7.98354,6 -3.71755,3.3 -7.56406,6 -8.5478,6 -0.98374,0 -2.68862,0.9 -3.78862,2 -1.1,1.1 -2.5625,2.00689 -3.25,2.01531 -0.83333,0.0102 -0.75,0.33844 0.25,0.98469 1.65283,1.06814 1.98849,0.95455 -4.5,1.52292 -1.65,0.14454 -3.3375,0.31101 -3.75,0.36994 -0.4125,0.0589 -0.75,2.16514 -0.75,4.68046 0,3.83468 0.28265,4.51152 1.75,4.19061 0.9625,-0.21049 1.6375,-0.91848 1.5,-1.57332 -0.47443,-2.25942 3.5214,-1.23491 4.13185,1.05939 0.32927,1.2375 2.42921,3.53548 4.66653,5.10663 2.23732,1.57115 4.59995,3.70865 5.25028,4.75 2.13486,3.41845 7.04555,2.4274 14.15471,-2.85663 z m 21.76229,1 c 0.83909,-0.9625 1.7675,-4.45 2.06312,-7.75 0.30356,-3.38859 1.86181,-9.08137 3.58025,-13.07979 4.17434,-9.71272 2.61029,-14.37055 -3.67879,-10.95563 -1.47413,0.80044 -2.33359,1.47336 -1.90992,1.49538 0.42368,0.022 -0.0975,1.74108 -1.15813,3.82014 -2.86109,5.60818 -5.20807,14.45185 -5.33696,20.11019 -0.16346,7.17655 3.00269,10.30302 6.44043,6.35971 z m -59.08332,-8.25 c 0.54213,0 0.77571,-0.33976 0.51906,-0.75502 -0.25664,-0.41527 0.084,-2.92354 0.75694,-5.57394 1.70534,-6.7163 1.00453,-10.67104 -1.891,-10.67104 -1.8155,0 -2.3698,0.70337 -2.84059,3.60453 -0.32172,1.9825 -0.39943,4.795 -0.17271,6.25 1.2454,7.99234 1.86639,10.46562 2.23348,8.89547 0.22502,-0.9625 0.85269,-1.75 1.39482,-1.75 z m 73.6502,-33.05643 c 0.091,-3.19898 -2.11096,-5.01515 -3.90511,-3.221 -1.51457,1.51457 0.0627,6.27743 2.0788,6.27743 1.25419,0 1.76365,-0.85261 1.82631,-3.05643 z M 366.85049,318.15407 c 0.33428,-1.05322 0.2917,-3.17432 -0.0946,-4.71355 -0.63055,-2.5123 -0.78093,-2.59773 -1.47011,-0.83504 -1.09379,2.79755 -1.07857,7.46355 0.0243,7.46355 0.51294,0 1.20612,-0.86173 1.5404,-1.91496 z m -15.74204,-7.77803 c -0.97297,-0.25354 -2.32297,-0.23687 -3,0.0371 -0.67703,0.27393 0.11903,0.48137 1.76903,0.46099 1.65,-0.0204 2.20394,-0.2445 1.23097,-0.49804 z m 1.26903,-2.28677 c 0,-0.53887 -0.73262,-2.81077 -1.62805,-5.04867 -2.01195,-5.02836 -4.71497,-5.08989 -5.19241,-0.11818 -0.17625,1.83535 -0.0779,3.96916 0.21862,4.74181 0.60424,1.57464 6.60184,1.96077 6.60184,0.42504 z m -24.155,-13.02024 c 0.13041,-2.21006 -0.22107,-4 -0.78544,-4 -1.2886,0 -2.46522,4.50048 -1.69879,6.49776 1.05484,2.74887 2.24528,1.55194 2.48423,-2.49776 z m -2.96342,-14.75 c -0.0651,-0.4125 -0.009,-1.0875 0.125,-1.5 1.06609,-3.28472 -1.4237,-6.4375 -6.86304,-8.69054 -1.72895,-0.71616 -3.14354,-1.66169 -3.14354,-2.10119 0,-0.43949 -2.99938,-1.12029 -6.66529,-1.51287 -5.74063,-0.61477 -6.84507,-0.46792 -7.96125,1.05854 -1.4963,2.04631 -0.19174,5.49606 2.07839,5.49606 0.75982,0 1.53148,0.35871 1.71482,0.79713 0.3826,0.91494 9.30187,5.20287 10.82243,5.20287 0.556,0 1.0109,0.45 1.0109,1 0,0.55 2.025,1 4.5,1 2.475,0 4.44671,-0.3375 4.38158,-0.75 z m 64.71307,-9 c 0.3769,-2.0625 1.14143,-4.875 1.69897,-6.25 2.18766,-5.39526 1.78627,-10 -0.87169,-10 -0.84698,0 -1.26185,0.45 -0.92193,1 0.33992,0.55 0.24121,1 -0.21935,1 -1.48013,0 -4.46317,11.89251 -3.77218,15.03858 0.91858,4.18226 3.2604,3.73032 4.08618,-0.78858 z m -103.84465,-1.95717 c 0.6875,-1.48036 1.25,-3.62672 1.25,-4.76969 0,-2.27942 -2.5968,-6.52314 -3.9916,-6.52314 -0.48301,0 -2.145,-0.49956 -3.6933,-1.11013 -2.63959,-1.04093 -2.69041,-1.16659 -0.8151,-2.01571 1.4302,-0.64757 0.73312,-0.77824 -2.44671,-0.45864 -2.60356,0.26168 -5.86655,-0.14631 -7.87213,-0.98429 -1.88397,-0.78718 -4.51128,-1.43123 -5.83847,-1.43123 -1.32718,0 -3.45819,-0.6848 -4.73557,-1.52177 -3.21759,-2.10824 -20.08948,-7.47823 -23.49576,-7.47823 -2.67304,0 -2.76962,0.16552 -2.18722,3.7485 0.49111,3.02139 1.28497,4.07398 4.09258,5.42642 1.9158,0.92286 5.17269,1.97591 7.23753,2.34012 2.06484,0.3642 3.50078,1.07231 3.19098,1.57358 -0.30979,0.50126 0.15242,0.91138 1.02714,0.91138 0.87472,0 1.82856,0.62065 2.11965,1.37921 0.29696,0.77385 2.71255,1.66884 5.50349,2.03907 2.73583,0.36292 4.73511,1.04676 4.44285,1.51965 -0.29226,0.47288 2.63209,1.17748 6.49855,1.56578 3.86646,0.38829 7.65775,1.3338 8.42508,2.10114 0.76733,0.76733 2.25125,1.39515 3.2976,1.39515 1.04635,0 2.50453,1.125 3.24041,2.5 1.72321,3.21985 3.18812,3.15596 4.75,-0.20717 z m 54.85699,1.12538 c -0.33385,-0.86998 -0.60699,-2.16998 -0.60699,-2.88889 0,-0.7189 -0.77664,-1.2446 -1.72588,-1.16821 -0.94923,0.0764 -1.73673,-0.51582 -1.75,-1.31603 -0.0133,-0.8002 -1.14912,-1.72356 -2.52412,-2.05191 -2.41569,-0.57686 -2.43255,-0.63637 -0.5,-1.76467 1.74911,-1.0212 1.78047,-1.1715 0.25,-1.19809 -0.9625,-0.0167 -1.75,-0.48041 -1.75,-1.03041 0,-0.55 -0.675,-1 -1.5,-1 -0.825,0 -1.5,0.675 -1.5,1.5 0,0.825 -0.70156,1.5 -1.55902,1.5 -0.85746,0 -1.2809,-0.45 -0.94098,-1 0.33992,-0.55 -0.0835,-1 -0.94098,-1 -0.89235,0 -1.55902,0.85524 -1.55902,2 0,1.45989 0.66667,2 2.46862,2 1.78348,0 2.30886,0.41631 1.89301,1.5 -0.70502,1.83723 2.66014,2.07823 4.4217,0.31667 0.65084,-0.65084 1.52834,-0.81423 1.95,-0.3631 0.42167,0.45113 0.20819,1.01979 -0.4744,1.26369 -1.50214,0.53674 0.15918,2.48478 3.05445,3.58163 0.99736,0.37784 1.5333,1.14016 1.19099,1.69405 -0.34232,0.55388 0.1273,1.00706 1.0436,1.00706 1.10834,0 1.46283,-0.52948 1.05902,-1.58179 z m -19.27134,-12.59375 c 0.71309,-2.72685 -3.10215,-11.82446 -4.95879,-11.82446 -0.75727,0 -1.37686,-0.675 -1.37686,-1.5 0,-0.825 -0.45,-1.5 -1,-1.5 -0.55,0 -1,0.675 -1,1.5 0,0.825 -0.45,1.5 -1,1.5 -0.55,0 -1,0.675 -1,1.5 0,0.825 -0.8625,2.3625 -1.91667,3.41667 -1.05416,1.05416 -1.6297,2.20363 -1.27896,2.55437 0.35074,0.35074 -0.0112,1.03877 -0.80437,1.52896 -2.12733,1.31476 -0.88436,1.98949 4.93458,2.67866 3.35806,0.39771 4.73721,0.91366 3.88561,1.45363 -0.87265,0.55331 -0.25798,0.84228 1.81318,0.8524 2.38362,0.0117 3.2695,-0.50525 3.70228,-2.16023 z m -25.56602,-3.82446 c 1.34659,-1.25455 3.52899,-2 5.85522,-2 4.48528,0 4.17176,-0.68435 -0.56094,-1.22444 -1.88986,-0.21567 -3.63603,-0.99191 -3.88038,-1.72497 -0.33134,-0.99402 0.2457,-1.15968 2.26988,-0.65164 1.77518,0.44554 2.49178,0.32139 2.07136,-0.35887 -0.35354,-0.57204 -1.46864,-1.04008 -2.478,-1.04008 -1.32921,0 -1.79543,-0.68909 -1.69098,-2.49929 0.1086,-1.88223 0.69973,-2.49947 2.39421,-2.5 4.05538,-0.001 2.35524,-1.75784 -2.39013,-2.46945 -2.8621,-0.4292 -4.88393,-0.30134 -5.27639,0.33367 -0.40459,0.65463 -1.17284,0.69017 -2.10987,0.0976 -0.99616,-0.62997 -1.06861,-0.93687 -0.22361,-0.94722 1.88321,-0.0231 1.50055,-1.80319 -0.5,-2.32598 -1.31691,-0.34415 -1.19317,-0.48603 0.5,-0.57333 2.46756,-0.12722 3.17247,-2.116 0.75,-2.116 -1.96696,0 -1.93284,-2.65839 0.0483,-3.76712 0.85159,-0.47658 1.62235,-1.84894 1.7128,-3.04969 0.0905,-1.20075 0.7988,-2.18319 1.5741,-2.18319 1.10267,0 1.15365,-0.30845 0.23409,-1.41645 -0.9332,-1.12444 -0.80383,-1.51284 0.62756,-1.884 1.58787,-0.41174 1.56437,-0.48322 -0.1969,-0.59886 -1.6673,-0.10948 -1.75047,-0.29255 -0.49995,-1.10069 1.11575,-0.72106 0.53938,-0.9733 -2.25,-0.98469 -3.8491,-0.0157 -5.12486,1.46203 -2,2.31665 0.9625,0.26324 -0.11758,0.40873 -2.40018,0.32333 -3.69142,-0.13813 -4.04207,-0.35755 -3.17214,-1.98505 0.83324,-1.55882 0.63338,-1.77741 -1.34981,-1.47625 -1.30983,0.1989 -2.20129,0.94151 -2.03843,1.69806 0.20925,0.97207 -0.41409,1.16799 -2.25,0.7072 -1.47491,-0.37017 -2.53944,-0.21017 -2.53944,0.3817 0,0.56048 -0.7875,1.02594 -1.75,1.03436 -1.04426,0.009 -1.32194,0.3116 -0.68856,0.75 0.99603,0.68942 1.3823,2.79482 1.44818,7.89343 0.0236,1.82545 0.79696,2.26452 5.00913,2.84384 5.0688,0.69714 6.82039,2.3861 2.73125,2.6336 l -2.25,0.13618 2.32645,0.44339 c 1.44997,0.27634 2.13045,0.95419 1.80618,1.79921 -0.28615,0.7457 0.0169,1.57564 0.67355,1.8443 0.89257,0.36521 0.86208,0.72192 -0.12083,1.41358 -1.53078,1.07719 -6.18535,0.40789 -6.18535,-0.88942 0,-0.48588 -1.0125,-0.88957 -2.25,-0.89708 -3.74046,-0.0227 -6.88912,-1.1812 -6.43527,-2.36776 0.24959,-0.65254 -0.87259,-1.21148 -2.69344,-1.34156 -1.71671,-0.12263 -4.02129,-0.67272 -5.12129,-1.22242 -10.4775,-5.23583 -17.5,-5.87836 -17.5,-1.60118 0,3.02991 2.67282,5.23052 9.10673,7.49784 8.01956,2.8261 20.52899,10.29957 18.45667,11.0265 -0.91742,0.32181 0.71801,0.63794 3.63428,0.70249 2.91628,0.0646 7.10232,0.78546 9.30232,1.602 5.60458,2.08017 7.79859,2.01987 10.26963,-0.28225 z m -9.70044,-9.93608 c -1.05836,-0.66975 -0.46978,-1.08574 2.26104,-1.59805 2.03052,-0.38093 3.93845,-1.09158 4.23983,-1.57923 0.74934,-1.21245 3.42994,-1.12385 3.42994,0.11336 0,0.55 -1.0125,1.04486 -2.25,1.09968 -2.14305,0.0949 -2.13165,0.13262 0.23992,0.79271 1.8201,0.50659 2.13292,0.91365 1.16287,1.51318 -0.75769,0.46828 -1.80452,0.3427 -2.43992,-0.2927 -1.38331,-1.38331 -5.0589,-1.48178 -4.21287,-0.11287 0.76589,1.23923 -0.52012,1.27305 -2.43081,0.0639 z m -4.56919,-12.06392 c 0.33992,-0.55 1.51803,-1 2.61803,-1 1.1,0 1.72189,0.45 1.38197,1 -0.33992,0.55 -1.51803,1 -2.61803,1 -1.1,0 -1.72189,-0.45 -1.38197,-1 z m 0.5,-3.5 c 0.68469,-0.825 1.33979,-1.5 1.45578,-1.5 0.11599,0 0.21089,0.675 0.21089,1.5 0,0.825 -0.6551,1.5 -1.45578,1.5 -1.18064,0 -1.2205,-0.28349 -0.21089,-1.5 z m -134.3898,15.77687 c -0.28323,-0.28323 -1.21484,0.18491 -2.07025,1.04032 -0.97949,0.97949 -1.17619,1.78959 -0.53131,2.18815 0.56319,0.34807 0.7529,1.07147 0.42158,1.60756 -0.33132,0.53609 -0.001,1.70475 0.73369,2.59702 1.16543,1.41509 1.37602,1.07686 1.64867,-2.64789 0.17192,-2.34861 0.0808,-4.50193 -0.20238,-4.78516 z m 71.91417,7.72313 c 1.86071,0 2.27504,-0.44527 1.95598,-2.10203 -0.22265,-1.15611 -0.92691,-2.73111 -1.56503,-3.5 -0.91258,-1.0996 -0.81393,-1.39797 0.46224,-1.39797 0.89234,0 1.62244,-0.47656 1.62244,-1.05902 0,-0.58246 -0.38219,-0.82281 -0.84932,-0.53411 -0.46713,0.2887 -1.80569,-0.575 -2.97458,-1.91935 -1.95028,-2.24302 -5.96711,-2.57641 -4.61134,-0.38274 0.3043,0.49237 -0.28728,0.89522 -1.31461,0.89522 -1.02734,0 -2.66635,0.58385 -3.64225,1.29744 -1.64651,1.20396 -1.49817,1.60057 2.05887,5.50465 2.10828,2.31396 4.43253,3.98012 5.16502,3.70256 0.73248,-0.27756 2.39414,-0.50465 3.69258,-0.50465 z m 79.97563,-14 c -0.33992,-0.55 -1.04148,-1 -1.55902,-1 -0.51754,0 -0.94098,0.45 -0.94098,1 0,0.55 0.70156,1 1.55902,1 0.85746,0 1.2809,-0.45 0.94098,-1 z m -80.5,-3.11663 c 0,-1.42687 -2.7368,-1.01164 -3.31819,0.50344 -0.37333,0.97288 0.0425,1.23655 1.39301,0.88337 1.05885,-0.27689 1.92518,-0.90096 1.92518,-1.38681 z m 94.25,1.45435 c -0.6875,-0.27741 -1.8125,-0.27741 -2.5,0 -0.6875,0.27741 -0.125,0.50438 1.25,0.50438 1.375,0 1.9375,-0.22697 1.25,-0.50438 z m -106.68136,-9.74927 c -0.34941,-2.24865 -1.37495,-4.6463 -2.27897,-5.32812 -2.42381,-1.82806 -0.87925,-2.64466 4.53498,-2.39761 3.59683,0.16412 5.4719,-0.30815 7.47299,-1.88221 4.78983,-3.76768 1.7523,-8.97691 -5.23877,-8.98425 -1.95738,-0.002 -5.03225,-0.90205 -6.83304,-2 -1.80079,-1.09794 -4.28964,-1.99626 -5.53076,-1.99626 -2.54441,0 -4.7061,-4.29517 -4.25051,-8.44553 0.15714,-1.43148 -0.34148,-2.68467 -1.19913,-3.01378 -1.01195,-0.38833 -1.28626,-0.0895 -0.88282,0.96187 0.45433,1.18396 -0.0856,1.47411 -2.41331,1.29675 -1.97281,-0.15032 -2.82985,-0.66821 -2.50533,-1.5139 0.27129,-0.70697 0.0574,-1.28541 -0.47535,-1.28541 -0.53274,0 -0.96862,0.45 -0.96862,1 0,0.55 -0.4875,1 -1.08333,1 -0.59584,0 -0.88545,-0.5625 -0.64358,-1.25 0.24186,-0.6875 0.058,-2.28221 -0.40857,-3.54379 -0.80657,-2.18091 -0.67586,-2.26144 2.65578,-1.63642 2.89979,0.544 3.40231,0.39212 2.91389,-0.88068 -0.43541,-1.13468 -1.48767,-1.39241 -4.0122,-0.98274 -2.72413,0.44207 -3.42199,0.22273 -3.42199,-1.07553 0,-0.89696 -0.45,-1.63084 -1,-1.63084 -0.55,0 -1,0.675 -1,1.5 0,0.825 -0.5625,1.50689 -1.25,1.51531 -0.83333,0.0102 -0.75,0.33844 0.25,0.98469 1.20329,0.77762 1.03641,0.9724 -0.84362,0.98469 -1.49473,0.01 -2.53306,0.73974 -2.86663,2.01531 -0.28766,1.1 -0.94709,2 -1.4654,2 -0.51831,0 -0.68349,0.41891 -0.36706,0.9309 0.31644,0.512 0.11799,1.21355 -0.44098,1.55902 -0.55897,0.34546 -1.01631,1.95156 -1.01631,3.5691 0,1.61754 -0.45,2.94098 -1,2.94098 -0.55,0 -1,0.675 -1,1.5 0,0.825 -0.62252,1.5 -1.38337,1.5 -1.7035,0 -2.58503,3.06789 -2.60298,9.05887 -0.0151,5.04095 -1.29933,7.40428 -5.03068,9.2578 -2.62501,1.30395 -3.58421,4.27469 -2.11238,6.54223 0.48513,0.74739 2.95372,1.5924 5.48576,1.8778 2.53204,0.2854 4.36114,0.91139 4.06466,1.3911 -0.29647,0.47971 1.31407,0.8722 3.57899,0.8722 2.49071,0 3.87381,-0.39517 3.5,-1 -0.38328,-0.62016 1.46184,-1 4.85765,-1 3.01163,0 5.63273,0.47114 5.82467,1.04697 0.19195,0.57583 2.59195,1.25509 5.33334,1.50947 2.74139,0.25438 6.33434,0.83621 7.98434,1.29297 2.51486,0.69616 3.38035,0.42594 5.35197,-1.67103 1.97359,-2.09905 2.24977,-3.15924 1.71667,-6.58993 z m -25.38735,-7.2694 c -2.84262,-1.4008 -3.22651,-2.00722 -2.67606,-4.22723 0.35346,-1.4255 1.06218,-2.74276 1.57494,-2.92723 0.51276,-0.18448 0.67793,-0.74698 0.36704,-1.25 -0.31088,-0.50303 0.55976,-0.91459 1.93476,-0.91459 1.375,0 2.80791,-0.49821 3.18424,-1.10713 0.45625,-0.73823 0.004,-0.89128 -1.35682,-0.45933 -1.12259,0.3563 -2.3305,0.17951 -2.68425,-0.39286 -0.36271,-0.58688 0.21902,-1.04068 1.33406,-1.04068 3.64859,0 5.3187,-1.08072 4.04388,-2.61678 -0.91896,-1.10728 -0.70322,-1.38322 1.08146,-1.38322 1.54926,0 2.05758,0.44786 1.66612,1.46797 -0.30982,0.80739 -0.12563,1.73848 0.40933,2.0691 0.53495,0.33062 0.68782,1.06196 0.33972,1.6252 -0.3481,0.56323 -0.59696,2.89464 -0.55303,5.1809 0.15384,8.00628 -1.80452,9.35681 -8.66539,5.97588 z m 3.69109,-19.06905 c -0.62935,-3.69848 -0.46701,-5.11653 0.51541,-4.50198 0.61172,0.38266 1.74216,0.79098 2.5121,0.90738 1.66182,0.25123 3.17329,2.41718 2.47511,3.54685 -0.62486,1.01105 -5.33175,1.05189 -5.50262,0.0478 z m 131.37762,33.04427 c -1.2375,-0.23836 -3.2625,-0.23836 -4.5,0 -1.2375,0.23835 -0.225,0.43337 2.25,0.43337 2.475,0 3.4875,-0.19502 2.25,-0.43337 z m -74.25,-0.68728 c 0,-0.21616 -0.675,-0.65203 -1.5,-0.96862 -0.825,-0.31658 -1.5,-0.13972 -1.5,0.39301 0,0.53274 0.675,0.96862 1.5,0.96862 0.825,0 1.5,-0.17686 1.5,-0.39301 z m 67,-0.76913 c 0,-1.07325 -4.89169,-0.96149 -7.5,0.17135 -1.47141,0.63907 -0.7446,0.84194 2.75,0.76758 2.6125,-0.0556 4.75,-0.4781 4.75,-0.93893 z m -8.75,-1.50014 c -0.6875,-0.27741 -1.8125,-0.27741 -2.5,0 -0.6875,0.27741 -0.125,0.50438 1.25,0.50438 1.375,0 1.9375,-0.22697 1.25,-0.50438 z m -58.25,-1.22109 c 0,-0.86389 -3.2956,-2.07583 -5.71862,-2.10298 -0.67435,-0.008 -0.96153,0.65629 -0.64301,1.48635 0.61,1.58963 6.36163,2.14713 6.36163,0.61663 z m 58.88966,-4.5603 c -0.26235,-0.26235 -1.55825,-0.19425 -2.87978,0.15134 -2.22438,0.58169 -2.25826,0.68168 -0.45633,1.34679 1.83289,0.67654 4.371,-0.46324 3.33611,-1.49813 z m -44.38966,-1.55633 c -0.33992,-0.55 -0.21668,-1 0.27386,-1 0.49055,0 0.77961,-1.0125 0.64235,-2.25 -0.13725,-1.2375 -0.28704,-2.86498 -0.33288,-3.61663 -0.0534,-0.87506 -0.82329,-1.17313 -2.14048,-0.82868 -1.53708,0.40196 -1.80135,0.22974 -1.04531,-0.68123 1.66169,-2.00221 -3.79214,-3.53475 -6.89754,-1.93822 -2.20858,1.13546 -2.26687,1.29385 -0.5,1.35883 1.73855,0.0639 1.79451,0.21391 0.42804,1.14732 -1.38711,0.9475 -1.29357,1.35218 0.79545,3.44119 1.30208,1.30208 3.24696,2.36742 4.32196,2.36742 1.075,0 1.95455,0.675 1.95455,1.5 0,0.825 0.70156,1.5 1.55902,1.5 0.85746,0 1.2809,-0.45 0.94098,-1 z m 43.5,-0.96862 c 0,-0.53273 -0.675,-0.70959 -1.5,-0.39301 -0.825,0.31659 -1.5,0.75246 -1.5,0.96862 0,0.21615 0.675,0.39301 1.5,0.39301 0.825,0 1.5,-0.43588 1.5,-0.96862 z m -83.13015,-22.7633 c 0.68703,-1.22766 0.49315,-2.53785 -0.66592,-4.5 -1.94101,-3.28586 -2.77274,-3.44229 -4.19295,-0.7886 -2.4708,4.61674 2.31793,9.82901 4.85887,5.2886 z m 32.13015,-3.3271 c 0,-0.58246 -0.45,-0.7809 -1,-0.44098 -0.55,0.33992 -1,0.81648 -1,1.05902 0,0.24254 0.45,0.44098 1,0.44098 0.55,0 1,-0.47656 1,-1.05902 z m 2,-2.44098 c -2.955,-1.68923 -4,-1.83803 -4,-0.56955 0,0.80992 2.18518,1.56397 5.5,1.89793 0.55,0.0554 -0.125,-0.54236 -1.5,-1.32838 z m -38,-7.05902 c 0,-0.24254 -0.45,-0.44098 -1,-0.44098 -0.55,0 -1,0.47656 -1,1.05902 0,0.58246 0.45,0.7809 1,0.44098 0.55,-0.33992 1,-0.81648 1,-1.05902 z m -31,-8.44098 c 0,-0.55 -0.45,-1 -1,-1 -0.55,0 -1,0.45 -1,1 0,0.55 0.45,1 1,1 0.55,0 1,-0.45 1,-1 z m 171,72 c 0,-0.55 0.45,-1 1,-1 0.55,0 1,0.45 1,1 0,0.55 -0.45,1 -1,1 -0.55,0 -1,-0.45 -1,-1 z m -6.12013,-5.86038 c -0.32046,-0.96138 -2.72495,-1.43121 -8.19812,-1.60189 -6.21096,-0.19369 -8.01355,-0.60924 -9.10244,-2.09837 -1.159,-1.58504 -1.1178,-2.18766 0.28146,-4.11668 0.90158,-1.24291 2.53923,-2.24234 3.63923,-2.22097 1.93728,0.0376 1.93958,0.0625 0.0731,0.79371 -1.78807,0.70047 -1.80019,0.80346 -0.16821,1.42971 3.27949,1.25846 9.35023,0.75536 9.95673,-0.82513 0.31658,-0.825 1.29128,-1.5 2.166,-1.5 0.87472,0 1.31032,0.45318 0.968,1.00706 -0.34231,0.55389 0.19363,1.30856 1.19099,1.67706 0.99736,0.3685 2.14399,1.15282 2.54807,1.74294 1.23926,1.80981 0.84569,4.57294 -0.65135,4.57294 -0.77916,0 -1.60416,0.5625 -1.83333,1.25 -0.3153,0.94591 -0.52698,0.91906 -0.87013,-0.11038 z m -23.60904,-4.74379 c 0.33229,-0.33229 1.19479,-0.36782 1.91667,-0.079 0.79773,0.31923 0.56078,0.55619 -0.60417,0.60417 -1.05416,0.0434 -1.64479,-0.19293 -1.3125,-0.52522 z M 298.12748,194.3797 c -0.9625,-0.25152 -1.75,-0.82424 -1.75,-1.2727 0,-0.44847 -1.54225,-1.10472 -3.42722,-1.45834 -1.88497,-0.35362 -3.57914,-1.0987 -3.76481,-1.65572 -0.18568,-0.55703 -1.45593,-1.09433 -2.82278,-1.19402 -3.25254,-0.2372 -7.99379,-4.49666 -7.95339,-7.14519 0.0297,-1.94576 0.12034,-1.96807 1.36025,-0.3347 0.73064,0.9625 2.29133,1.75 3.46819,1.75 1.17687,0 2.13976,0.3989 2.13976,0.88646 0,0.48755 2.025,1.19012 4.5,1.56127 2.475,0.37115 4.5,1.09724 4.5,1.61354 0,0.5163 0.57732,0.93873 1.28293,0.93873 2.14099,0 6.59561,4.15295 6.03149,5.62303 -0.54725,1.42611 -0.65733,1.44735 -3.56442,0.68764 z M 268.8994,179.89578 c -5.76082,-1.09888 -6.52059,-1.58349 -4.49296,-2.86581 1.21915,-0.77101 1.15711,-0.93294 -0.36229,-0.94563 -1.02072,-0.008 -1.64645,-0.56937 -1.4117,-1.26531 0.24182,-0.71693 1.87656,-1.18576 3.83333,-1.09936 4.97153,0.21951 5.08798,0.25512 4.4117,1.34936 -0.33992,0.55 -0.14148,1 0.44098,1 0.58246,0 1.05902,0.60623 1.05902,1.34719 0,0.74095 1.0125,1.83549 2.25,2.43231 2.71115,1.30754 0.95492,1.32203 -5.72808,0.0472 z m -54.02192,-4.82675 c -0.35052,-0.56716 0.48962,-1 1.94098,-1 1.40746,0 2.55902,0.45 2.55902,1 0,0.55 -0.87344,1 -1.94098,1 -1.06754,0 -2.2191,-0.45 -2.55902,-1 z m -27.15888,-4.25255 c 0.0874,-1.4981 0.71379,-2.9371 1.39202,-3.19778 0.67823,-0.26068 0.96758,-1.166 0.64301,-2.01182 -0.32457,-0.84582 -0.12879,-1.53785 0.43507,-1.53785 0.56386,0 1.84951,-0.30925 2.85699,-0.68723 1.64101,-0.61566 1.68226,-0.50357 0.39609,1.07621 -1.2476,1.53241 -1.2476,1.88248 0,2.67192 1.08414,0.68602 1.11516,0.91222 0.12668,0.92379 -0.71996,0.008 -1.0309,0.46531 -0.69098,1.01531 0.33992,0.55 -0.14641,1 -1.08074,1 -0.93433,0 -2.26988,0.78103 -2.9679,1.73563 -1.13405,1.5509 -1.25222,1.44572 -1.11024,-0.98818 z m 27.65888,-0.13395 c 0,-1.92653 -0.62459,-2.47817 -3.24058,-2.86212 -2.18662,-0.32093 -3.60316,0.0202 -4.35539,1.04898 -2.03986,2.78967 -4.31842,0.72534 -3.80131,-3.44391 0.25641,-2.06729 0.63445,-3.92695 0.84009,-4.13259 0.20564,-0.20564 2.50146,-0.0548 5.10182,0.3351 3.51459,0.52705 4.31867,0.93804 3.13319,1.60147 -3.1275,1.75023 -0.71733,3.83957 4.42917,3.83957 6.59295,0 6.27323,-1.95261 -0.35699,-2.18025 l -5.25,-0.18025 4.77453,-0.37554 c 2.65552,-0.20887 4.51555,-0.7946 4.19099,-1.31975 -0.95309,-1.54213 2.90511,-1.07334 5.36887,0.65235 3.3079,2.31694 2.5531,5.81856 -1.33439,6.19037 -2.3035,0.22032 -2.65175,0.0497 -1.5,-0.73468 1.16174,-0.79124 0.74266,-1.02508 -1.85841,-1.03694 -3.08545,-0.0141 -3.30741,0.18788 -2.73095,2.48469 0.51411,2.04838 0.26272,2.5 -1.39159,2.5 -1.46138,0 -2.01905,-0.65916 -2.01905,-2.3865 z"
       id="path3522" />
  </g>
</svg>
